<svg xmlns="http://www.w3.org/2000/svg" xmlns:xlink="http://www.w3.org/1999/xlink" width="793" zoomAndPan="magnify" viewBox="0 0 595.5 595.499986" height="793" preserveAspectRatio="xMidYMid meet" version="1.0"><path fill="#05347e" d="M 528.730469 186.40625 C 528.925781 186.644531 529.15625 187.003906 529.417969 187.523438 C 529.703125 188.167969 529.929688 188.699219 530.117188 189.164062 C 529.660156 188.242188 529.199219 187.320312 528.730469 186.40625 Z M 530.117188 189.164062 C 532.058594 193.082031 533.910156 197.054688 535.671875 201.082031 L 534.109375 197.953125 C 530.960938 192.101562 531.304688 192.078125 530.117188 189.164062 Z M 528.730469 186.40625 C 528.144531 185.699219 527.851562 186.089844 527.851562 186.480469 L 529.9375 190.652344 C 528.894531 193.257812 523.679688 178.660156 523.160156 181.789062 C 521.074219 185.4375 526.289062 197.429688 526.289062 197.953125 C 525.246094 198.472656 514.816406 191.171875 518.988281 200.558594 C 520.03125 203.164062 523.679688 211.507812 520.03125 208.902344 C 516.378906 206.816406 518.464844 203.164062 517.945312 201.601562 C 514.292969 197.953125 513.25 199.515625 511.167969 192.738281 C 509.082031 187.003906 509.082031 185.4375 504.910156 181.789062 C 500.738281 178.660156 500.214844 177.09375 496.566406 173.96875 C 491.875 169.273438 490.832031 166.667969 488.746094 168.230469 C 490.308594 177.09375 505.953125 188.042969 509.082031 192.738281 C 506.996094 191.695312 506.996094 191.695312 504.386719 190.652344 C 504.910156 194.300781 508.039062 197.429688 504.910156 198.472656 C 503.34375 194.824219 505.429688 195.34375 501.78125 190.128906 C 498.652344 185.960938 498.128906 186.480469 495 184.394531 C 489.789062 180.746094 485.09375 171.359375 481.964844 168.753906 C 479.359375 168.753906 478.839844 170.839844 475.710938 171.359375 C 471.539062 171.882812 470.496094 168.753906 465.804688 169.796875 C 463.195312 174.488281 468.929688 172.402344 462.152344 176.574219 C 452.769531 182.308594 459.023438 190.652344 450.160156 193.257812 C 446.511719 194.300781 445.988281 192.738281 442.859375 193.257812 C 438.6875 193.78125 441.296875 194.824219 438.6875 195.867188 C 436.601562 194.300781 435.558594 192.214844 433.476562 191.171875 C 429.304688 188.042969 429.824219 190.652344 425.652344 188.042969 C 423.566406 184.394531 424.089844 163.015625 425.132812 161.453125 C 432.433594 159.367188 441.296875 167.1875 448.597656 165.101562 C 450.683594 162.496094 450.160156 157.804688 448.597656 153.632812 C 445.988281 147.375 442.339844 149.460938 438.6875 144.769531 C 439.210938 144.246094 446.511719 143.726562 448.074219 143.726562 C 455.894531 142.683594 451.203125 144.246094 456.417969 140.597656 C 459.023438 139.03125 460.589844 139.03125 463.195312 136.945312 C 466.324219 133.816406 468.929688 137.46875 471.539062 135.902344 C 471.015625 132.773438 464.761719 126.515625 469.972656 127.039062 C 471.539062 129.644531 471.539062 129.644531 472.582031 132.253906 L 476.230469 132.253906 C 478.695312 135.703125 476.035156 134.960938 474.417969 134.429688 C 474.171875 133.988281 474.074219 133.738281 474.042969 133.609375 C 474.210938 133.570312 473.976562 133.335938 474.042969 133.609375 C 473.9375 133.632812 473.679688 133.585938 473.101562 133.296875 L 474.144531 134.339844 C 477.796875 140.597656 477.796875 136.425781 481.445312 139.03125 C 487.703125 143.203125 483.53125 141.117188 488.222656 141.640625 C 491.351562 142.160156 492.394531 145.289062 494.480469 144.769531 C 496.566406 144.246094 493.4375 141.640625 492.917969 139.03125 C 495 139.554688 496.042969 142.683594 497.085938 141.640625 C 495.523438 139.03125 495.523438 139.554688 493.4375 136.425781 C 494.480469 136.425781 500.738281 143.203125 499.171875 140.597656 C 493.957031 134.339844 493.957031 137.46875 486.136719 128.601562 C 483.007812 123.910156 486.660156 127.039062 483.007812 122.347656 C 478.839844 118.695312 480.921875 121.304688 480.402344 121.824219 C 479.359375 122.347656 476.753906 120.261719 478.839844 123.910156 C 481.964844 128.082031 481.445312 126.515625 484.574219 129.644531 C 485.09375 132.253906 482.488281 129.125 483.53125 132.773438 C 484.050781 135.382812 483.53125 136.425781 480.921875 135.902344 C 476.230469 132.253906 475.710938 128.601562 469.972656 123.390625 C 466.847656 122.347656 467.367188 125.476562 461.632812 121.304688 C 459.023438 119.21875 456.417969 115.046875 455.375 112.960938 C 456.9375 110.351562 465.28125 114.523438 465.804688 110.875 C 465.804688 107.746094 469.453125 110.351562 472.058594 111.917969 C 473.101562 112.4375 473.625 112.960938 474.144531 113.480469 C 496.332031 134.335938 514.738281 158.964844 528.730469 186.40625 Z M 474.417969 134.429688 C 474.488281 134.554688 474.570312 134.699219 474.667969 134.859375 L 474.144531 134.339844 C 474.230469 134.367188 474.320312 134.398438 474.417969 134.429688 Z M 150.910156 177.09375 C 150.050781 177.710938 149.164062 178.402344 148.253906 179.179688 C 144.085938 182.308594 139.390625 187.003906 135.742188 189.609375 C 131.570312 192.738281 135.21875 198.472656 128.960938 204.730469 C 125.3125 208.378906 119.054688 212.03125 114.363281 216.203125 C 96.636719 233.410156 111.757812 246.964844 101.847656 252.703125 C 95.070312 248.53125 104.457031 231.84375 96.113281 231.84375 C 90.898438 231.84375 89.855469 230.28125 87.25 230.28125 C 83.078125 230.28125 82.558594 234.453125 79.949219 237.582031 C 71.085938 238.625 78.386719 229.238281 65.871094 241.75 C 58.050781 250.09375 61.179688 247.488281 57.007812 261.566406 C 52.3125 281.378906 59.613281 299.628906 69 280.859375 C 72.128906 274.601562 80.472656 267.824219 77.863281 279.816406 C 76.300781 286.59375 67.957031 298.066406 75.257812 299.109375 C 84.121094 300.152344 87.25 295.980469 85.164062 313.1875 C 84.121094 325.699219 84.644531 330.914062 94.550781 331.957031 C 99.765625 331.957031 107.0625 336.128906 111.234375 330.914062 C 112.800781 328.828125 123.75 312.664062 125.835938 319.964844 C 127.917969 327.265625 123.226562 338.734375 129.484375 325.699219 C 134.699219 315.792969 140.433594 324.65625 149.820312 327.785156 C 159.726562 330.914062 165.460938 328.308594 174.328125 337.695312 C 183.191406 346.558594 182.148438 351.25 196.226562 353.335938 C 208.21875 354.902344 213.957031 357.507812 219.167969 369.5 C 223.339844 379.929688 212.390625 389.316406 212.390625 389.835938 C 219.691406 387.75 229.078125 379.929688 226.46875 391.402344 C 224.90625 399.222656 236.375 383.058594 245.761719 392.964844 C 258.277344 406 255.148438 395.574219 270.789062 400.265625 C 279.132812 402.871094 287.996094 411.734375 298.949219 415.386719 C 302.074219 436.761719 280.699219 440.933594 280.699219 455.011719 C 280.175781 466.484375 281.21875 489.429688 265.054688 491.515625 C 236.375 493.597656 248.890625 501.421875 242.632812 512.890625 C 230.121094 533.75 226.46875 523.84375 217.085938 523.84375 C 217.085938 525.40625 234.8125 534.792969 219.167969 534.269531 C 212.914062 533.75 211.871094 532.707031 212.390625 536.355469 C 212.914062 538.441406 209.261719 536.355469 205.613281 536.355469 C 205.613281 537.398438 209.261719 539.484375 210.828125 540.527344 C 212.914062 542.613281 210.304688 542.613281 209.785156 543.65625 C 208.21875 545.742188 218.128906 546.785156 216.5625 549.914062 C 216.042969 550.957031 222.820312 554.085938 211.871094 550.433594 C 203.527344 547.304688 201.964844 546.261719 196.75 543.132812 C 194.664062 542.089844 191.011719 540.527344 190.492188 539.484375 C 189.96875 538.441406 191.011719 538.441406 188.925781 536.355469 C 186.320312 533.226562 179.019531 529.578125 175.371094 525.40625 C 170.675781 519.671875 170.675781 516.019531 167.027344 509.765625 C 150.339844 475.347656 159.726562 465.964844 133.65625 449.800781 C 121.140625 441.457031 125.3125 441.457031 117.492188 431.027344 C 110.714844 422.164062 108.628906 414.34375 104.457031 408.609375 C 102.371094 405.480469 98.199219 401.828125 97.679688 398.179688 C 96.636719 394.007812 99.242188 391.921875 98.722656 388.273438 C 97.15625 379.929688 92.464844 383.578125 100.804688 368.457031 C 106.019531 359.070312 106.542969 355.421875 102.890625 342.90625 C 101.328125 338.734375 103.414062 335.609375 99.765625 334.042969 C 94.550781 331.4375 95.070312 337.171875 92.984375 339.257812 C 76.820312 334.566406 75.777344 310.578125 70.5625 311.101562 C 63.785156 311.101562 63.265625 305.886719 59.613281 300.152344 C 55.964844 293.894531 55.441406 303.28125 49.707031 297.542969 C 37.714844 281.378906 43.449219 283.988281 41.886719 271.472656 C 41.363281 264.695312 40.84375 265.214844 40.84375 257.394531 C 40.84375 254.265625 40.320312 253.222656 40.84375 250.09375 C 41.363281 246.445312 41.886719 245.402344 41.886719 241.75 C 39.277344 251.136719 38.234375 269.386719 37.714844 268.34375 C 36.671875 265.738281 40.320312 244.359375 41.363281 238.101562 C 41.886719 236.539062 41.886719 234.972656 42.40625 233.929688 C 54.921875 188.566406 79.949219 147.894531 111.757812 117.652344 C 120.621094 109.832031 122.707031 108.789062 130.003906 105.660156 C 134.175781 104.097656 149.296875 96.273438 158.164062 93.667969 C 174.328125 89.496094 181.105469 79.066406 183.714844 81.152344 C 188.925781 85.324219 193.621094 82.195312 205.613281 80.109375 C 201.441406 81.152344 204.046875 84.28125 190.492188 86.890625 C 184.753906 88.453125 186.839844 87.929688 182.148438 90.015625 C 176.414062 92.625 180.0625 89.496094 175.371094 91.582031 C 175.890625 92.625 175.890625 92.625 176.933594 93.667969 C 171.71875 96.796875 167.027344 97.839844 162.855469 98.882812 C 159.726562 102.011719 164.421875 99.925781 158.164062 103.054688 C 151.382812 107.222656 142.519531 111.917969 137.828125 118.175781 C 139.914062 124.433594 140.957031 121.304688 145.128906 121.824219 C 147.734375 121.824219 148.777344 122.867188 150.863281 122.867188 C 153.46875 123.390625 156.078125 122.347656 158.164062 123.390625 C 153.992188 130.167969 151.382812 131.210938 154.511719 135.902344 C 165.460938 133.296875 162.335938 126.515625 169.113281 121.824219 C 175.890625 117.132812 183.191406 116.089844 184.753906 108.789062 C 186.320312 103.054688 185.796875 106.183594 190.492188 102.011719 C 193.621094 99.402344 193.621094 97.316406 197.269531 95.230469 C 203.527344 92.101562 213.433594 93.144531 216.5625 95.753906 C 216.5625 97.839844 211.871094 105.140625 219.691406 102.53125 C 224.382812 100.96875 229.597656 96.273438 233.246094 95.753906 C 234.289062 97.316406 234.289062 100.96875 233.769531 103.054688 C 233.246094 108.789062 233.246094 105.660156 236.375 110.351562 C 234.8125 112.960938 234.8125 112.960938 233.246094 115.046875 C 239.503906 115.046875 243.15625 111.394531 246.804688 116.089844 C 245.238281 122.867188 221.777344 130.167969 215.519531 130.167969 C 207.175781 130.6875 205.613281 129.644531 196.75 133.816406 C 193.097656 135.902344 185.277344 139.03125 183.191406 142.683594 C 187.363281 144.246094 194.664062 134.859375 203.007812 136.945312 C 203.527344 140.074219 198.3125 140.597656 197.792969 145.808594 C 201.441406 152.066406 207.175781 147.375 211.347656 148.9375 C 210.863281 149.421875 208.621094 150.609375 205.710938 151.972656 C 206.5625 151.789062 207.402344 151.648438 208.21875 151.546875 C 205.089844 153.632812 204.570312 153.632812 200.921875 154.675781 C 196.886719 155.683594 197.726562 156.691406 195.429688 156.285156 C 193.988281 156.8125 192.652344 157.253906 191.539062 157.554688 C 184.371094 162.667969 182.828125 161.390625 180.0625 160.933594 C 182.671875 159.890625 182.148438 160.410156 184.234375 159.890625 C 185.050781 159.480469 186.511719 157.785156 190.628906 156.320312 L 197.792969 151.546875 C 193.097656 149.460938 184.753906 155.195312 180.0625 157.28125 C 168.507812 162.84375 171.703125 161.382812 168.035156 165.578125 C 168.832031 165.117188 169.613281 164.597656 171.199219 163.539062 C 171.199219 164.582031 169.632812 165.625 167.546875 167.1875 C 168.589844 167.1875 168.589844 167.1875 169.632812 167.710938 C 163.476562 172.445312 159.472656 172.019531 154.101562 175.027344 C 153.558594 175.339844 153 175.675781 152.429688 176.054688 C 151.972656 176.398438 151.460938 176.746094 150.910156 177.09375 Z M 109.671875 254.265625 C 109.148438 253.222656 109.148438 253.222656 108.105469 252.703125 C 110.191406 249.050781 108.105469 251.136719 110.714844 250.09375 Z M 109.671875 254.265625 C 111.757812 254.789062 110.714844 253.746094 110.714844 256.351562 Z M 208.011719 61.984375 C 207.394531 62.023438 206.382812 62.121094 204.570312 62.382812 C 200.921875 62.902344 198.835938 64.46875 196.226562 63.425781 C 197.792969 61.339844 204.570312 57.6875 207.175781 58.210938 C 205.613281 59.253906 205.613281 59.253906 204.046875 60.816406 C 206.65625 60.296875 207.699219 58.210938 211.871094 57.167969 C 217.605469 55.605469 216.5625 57.167969 219.691406 57.167969 C 223.863281 57.167969 224.382812 55.082031 227.511719 56.644531 C 228.53125 57.082031 229.265625 57.273438 229.882812 57.347656 C 232.460938 56.820312 235.109375 56.4375 237.417969 56.644531 C 236.566406 57.039062 235.8125 57.367188 235.136719 57.640625 C 235.199219 57.65625 235.265625 57.671875 235.332031 57.6875 C 236.898438 59.253906 234.8125 60.296875 236.898438 61.339844 C 238.460938 62.382812 242.113281 62.382812 241.589844 63.945312 C 240.027344 68.117188 233.769531 63.945312 229.597656 65.511719 C 227.511719 68.117188 232.203125 68.117188 228.554688 71.246094 C 224.90625 71.765625 224.382812 69.679688 220.734375 71.765625 C 222.820312 72.808594 222.820312 72.808594 224.382812 73.851562 C 217.605469 77.503906 213.957031 71.246094 210.828125 70.722656 C 206.65625 71.246094 203.527344 73.332031 201.441406 72.289062 C 204.570312 69.160156 208.21875 70.203125 211.871094 69.679688 C 214.476562 68.117188 215.519531 66.554688 218.648438 66.03125 C 221.777344 66.03125 220.734375 67.597656 225.949219 64.988281 C 225.425781 64.46875 222.820312 63.945312 220.734375 61.859375 C 220.304688 61.429688 219.609375 60.914062 218.757812 60.527344 C 214.828125 61.191406 210.539062 62.027344 207.699219 62.382812 C 207.800781 62.242188 207.90625 62.113281 208.011719 61.984375 Z M 539.324219 209.421875 C 550.273438 238.625 556.53125 270.429688 556.007812 303.28125 L 556.007812 310.578125 C 555.488281 305.367188 556.007812 298.585938 555.488281 294.414062 C 552.359375 277.210938 553.402344 276.167969 550.273438 263.652344 C 549.753906 261.566406 548.710938 258.4375 548.1875 256.351562 C 546.625 252.703125 546.625 250.09375 545.582031 246.964844 L 545.582031 251.136719 L 542.453125 243.835938 C 542.453125 246.445312 548.1875 265.214844 549.230469 269.386719 C 550.796875 277.210938 550.796875 271.996094 551.835938 282.945312 C 552.359375 288.679688 553.402344 290.246094 553.921875 294.9375 C 554.445312 305.886719 555.488281 303.28125 555.488281 315.273438 L 555.488281 318.921875 C 554.445312 330.914062 552.878906 342.386719 550.796875 353.859375 C 549.753906 358.550781 547.144531 367.9375 546.625 370.023438 C 543.496094 380.449219 542.453125 384.621094 540.367188 391.402344 C 539.84375 391.921875 539.84375 391.921875 539.84375 392.445312 C 536.714844 401.828125 532.542969 410.691406 528.375 419.558594 L 523.679688 428.945312 C 523.160156 430.507812 522.636719 431.027344 522.117188 432.070312 C 512.730469 448.234375 501.78125 463.355469 489.265625 477.433594 C 484.050781 482.648438 481.445312 485.257812 481.964844 482.648438 C 481.445312 476.390625 488.222656 462.835938 487.179688 452.929688 C 484.050781 435.199219 499.695312 426.859375 499.171875 404.4375 C 498.652344 395.050781 493.4375 390.359375 492.917969 382.535156 C 492.394531 374.195312 496.042969 361.679688 491.351562 354.902344 C 477.796875 336.652344 459.023438 352.816406 441.816406 354.902344 C 410.011719 358.550781 413.660156 345.515625 396.453125 322.050781 C 389.152344 312.144531 388.632812 314.75 391.238281 301.714844 C 393.324219 290.246094 391.238281 278.773438 392.804688 267.300781 C 395.933594 242.273438 415.226562 236.539062 424.609375 216.722656 C 434.519531 195.34375 437.644531 205.25 467.886719 199.515625 C 497.085938 195.34375 487.703125 209.421875 504.910156 224.023438 C 525.765625 244.359375 514.292969 218.289062 532.542969 232.886719 C 536.195312 236.539062 542.453125 241.75 544.015625 239.667969 C 545.058594 238.101562 542.453125 223.5 541.410156 221.417969 C 539.324219 217.246094 540.367188 221.417969 538.800781 220.375 C 536.714844 218.808594 537.238281 216.203125 534.628906 216.203125 C 533.585938 216.203125 531.503906 214.636719 529.9375 210.988281 C 528.375 208.378906 528.894531 207.859375 527.851562 205.773438 C 525.765625 201.082031 526.808594 204.730469 525.246094 200.558594 C 526.808594 200.558594 527.332031 201.601562 527.851562 201.601562 C 528.894531 201.601562 528.375 200.039062 528.894531 199.515625 C 529.9375 198.996094 529.9375 200.039062 530.980469 200.558594 C 531.503906 200.558594 530.980469 199.515625 532.023438 199.515625 C 534.109375 200.558594 538.28125 209.945312 539.324219 209.945312 Z M 252.539062 45.175781 C 257.753906 44.652344 264.011719 44.132812 269.746094 44.132812 C 274.441406 43.609375 277.570312 43.089844 282.78125 42.570312 C 291.648438 42.046875 304.683594 43.609375 316.15625 44.132812 C 327.625 45.175781 335.96875 46.21875 346.398438 47.78125 C 353.175781 49.347656 353.695312 49.867188 360.476562 51.433594 C 362.039062 51.433594 370.902344 54.039062 370.902344 54.039062 C 361.519531 52.996094 362.5625 51.433594 360.476562 54.039062 C 358.910156 56.644531 352.132812 54.5625 346.917969 55.082031 L 354.21875 58.210938 C 352.652344 58.210938 345.355469 55.082031 343.269531 56.125 C 341.183594 56.644531 349.527344 58.210938 349.527344 58.730469 C 344.832031 59.773438 335.449219 58.210938 329.191406 58.210938 C 321.890625 58.210938 320.847656 60.296875 310.941406 60.816406 C 301.554688 61.339844 298.425781 61.339844 293.734375 65.511719 C 289.5625 69.160156 285.910156 71.246094 277.046875 68.640625 C 266.617188 65.511719 271.3125 61.859375 271.3125 61.859375 C 271.832031 59.773438 270.789062 60.816406 270.789062 59.253906 C 270.789062 55.605469 283.824219 56.125 282.261719 52.476562 C 280.699219 49.867188 279.132812 51.953125 277.570312 49.347656 C 273.917969 44.132812 258.796875 47.261719 251.496094 46.21875 Z M 442.859375 129.644531 C 439.730469 121.824219 438.6875 127.558594 436.082031 122.347656 C 433.476562 118.175781 433.996094 117.652344 437.125 116.609375 C 439.210938 118.175781 439.210938 118.175781 441.816406 119.738281 L 439.730469 121.824219 C 449.117188 129.125 445.46875 125.996094 451.726562 134.859375 C 454.332031 135.902344 454.332031 135.902344 456.417969 136.945312 C 455.894531 139.03125 454.851562 137.46875 454.332031 139.03125 C 453.8125 140.597656 454.851562 139.554688 454.332031 141.117188 C 445.988281 140.074219 445.988281 140.074219 437.644531 139.554688 C 439.730469 137.46875 442.339844 140.597656 443.902344 137.46875 C 441.296875 135.902344 441.296875 135.902344 438.6875 134.859375 C 438.167969 129.644531 441.296875 131.730469 442.859375 129.644531 Z M 87.769531 269.910156 C 88.292969 267.300781 88.8125 267.300781 90.898438 265.738281 C 92.464844 264.695312 93.507812 264.695312 95.59375 264.171875 C 104.457031 262.609375 118.011719 272.515625 121.140625 276.167969 C 115.925781 279.296875 113.839844 277.210938 106.542969 277.210938 L 107.585938 274.082031 C 103.414062 271.472656 101.847656 268.867188 98.199219 267.300781 C 93.507812 265.214844 92.464844 267.824219 87.769531 269.910156 Z M 351.609375 62.382812 C 352.132812 64.988281 347.960938 67.074219 344.3125 67.597656 C 339.097656 68.640625 340.660156 70.722656 333.882812 69.679688 C 334.40625 67.597656 338.574219 66.03125 341.183594 64.46875 C 343.789062 63.425781 343.269531 63.425781 346.917969 63.425781 C 352.132812 63.425781 348.484375 62.902344 351.609375 62.382812 Z M 126.355469 283.464844 C 125.3125 281.378906 125.3125 281.378906 124.792969 278.773438 C 132.613281 277.210938 135.21875 278.253906 141.476562 282.945312 C 132.089844 289.203125 128.441406 285.550781 123.226562 286.074219 C 119.578125 286.59375 121.140625 286.59375 117.492188 285.550781 C 120.621094 283.464844 121.140625 285.550781 126.355469 283.464844 Z M 179.019531 74.375 C 182.148438 71.765625 184.753906 69.679688 187.882812 69.160156 C 196.226562 68.640625 191.535156 72.289062 191.535156 72.808594 C 183.714844 71.246094 183.191406 75.417969 179.019531 74.375 Z M 219.691406 54.5625 C 224.382812 52.476562 230.121094 50.390625 234.289062 50.910156 C 233.246094 51.433594 228.554688 52.996094 227.511719 53.519531 C 225.425781 54.039062 220.734375 54.5625 219.691406 54.5625 Z M 497.085938 198.996094 C 499.171875 197.429688 500.214844 198.996094 503.867188 200.039062 L 503.867188 204.207031 C 500.214844 201.601562 500.214844 201.601562 497.085938 198.996094 Z M 173.285156 168.230469 C 176.414062 166.144531 177.976562 165.625 181.105469 165.101562 C 177.976562 166.667969 177.976562 166.667969 174.328125 168.753906 C 173.804688 168.753906 173.804688 168.753906 173.285156 168.230469 Z M 104.457031 286.074219 C 106.542969 283.988281 109.148438 284.507812 111.234375 287.636719 C 107.0625 288.679688 107.0625 289.203125 104.457031 286.074219 Z M 145.648438 285.03125 C 147.210938 282.945312 149.820312 283.464844 151.90625 285.03125 C 149.296875 288.679688 147.734375 288.679688 145.648438 285.03125 Z M 109.671875 246.964844 L 109.671875 243.835938 L 112.800781 243.835938 Z M 119.578125 267.824219 C 121.664062 266.78125 121.664062 266.78125 123.226562 267.824219 C 120.621094 269.386719 121.664062 269.386719 119.578125 267.824219 Z M 119.578125 267.824219 " fill-opacity="1" fill-rule="evenodd"/><path fill="#ffbd59" d="M 94.730469 490.84375 L 96.234375 489.617188 L 25.851562 417.199219 C 31.277344 429.191406 33.28125 430.375 40.332031 443.535156 L 39.25 444.113281 C 31.597656 429.832031 29.597656 429.402344 22.777344 414.300781 L 19.449219 406.050781 C 14.863281 393.203125 12.917969 385.507812 8.039062 364.152344 L 7.90625 364.183594 C 2.914062 342.550781 0.464844 320.492188 0.425781 298.28125 L 0.0859375 298.199219 C 0.210938 297.710938 0.320312 297.265625 0.425781 296.847656 C 0.460938 284.667969 1.222656 271.917969 2.679688 259.6875 C 8.335938 214.4375 24.242188 172.332031 47.980469 135.761719 L 48.066406 135.480469 L 48.148438 135.503906 C 101.179688 53.980469 193.179688 0 297.375 0 C 409.019531 0 506.390625 61.699219 557.21875 152.832031 L 557.976562 154.203125 C 574.75 184.65625 586.34375 218.359375 591.558594 254.117188 L 592.03125 255.375 L 591.753906 255.480469 C 593.683594 269.152344 594.679688 283.113281 594.679688 297.304688 C 594.679688 321.371094 591.8125 344.777344 586.394531 367.21875 L 586.019531 368.75 C 568.558594 439.40625 525.800781 500.140625 467.929688 540.777344 L 467.722656 540.921875 C 425 570.871094 374.046875 589.875 318.96875 593.835938 C 310.757812 594.769531 305.695312 594.609375 305.695312 594.609375 L 305.699219 594.492188 C 302.945312 594.570312 300.164062 594.609375 297.375 594.609375 C 264.410156 594.609375 230.820312 587.800781 199.597656 576.660156 L 198.375 576.222656 C 187.738281 572.378906 177.378906 568.039062 167.421875 563.292969 C 167.265625 563.28125 167.179688 563.277344 167.179688 563.277344 C 167.179688 563.277344 167.226562 563.253906 167.285156 563.226562 C 131.503906 546.160156 100.914062 523.910156 81.054688 501.078125 L 80.546875 500.574219 L 80.984375 500.753906 L 80.515625 500.539062 C 77.386719 496.886719 74.78125 494.28125 71.652344 490.632812 C 71.648438 490.625 71.644531 490.621094 71.636719 490.613281 C 67.460938 485.394531 61.714844 478.601562 55.449219 469.726562 C 49.703125 461.367188 43.957031 453.003906 39.253906 444.648438 L 40.328125 444.042969 C 45.011719 452.371094 50.734375 460.695312 56.460938 469.023438 C 62.703125 477.867188 68.425781 484.632812 72.59375 489.839844 C 75.710938 493.476562 78.3125 496.082031 81.433594 499.71875 L 81.871094 500.15625 Z M 492.335938 514.347656 C 522.5625 478.441406 550.035156 429.515625 549.625 429.3125 C 531.816406 442.921875 515.875 449.296875 461.597656 469.136719 L 461.359375 469.410156 C 483.351562 500.199219 486.636719 504.808594 491.621094 514.171875 L 491.644531 514.164062 C 491.894531 514.070312 492.171875 514.144531 492.335938 514.347656 Z M 353.953125 10.425781 L 397.40625 87.015625 C 397.394531 86.71875 397.394531 86.425781 397.394531 86.128906 L 398.007812 86.128906 L 398.558594 85.851562 C 399.03125 86.800781 399.125 87.742188 399.140625 88.691406 L 400.851562 88.828125 C 423.363281 69.304688 434.355469 62.574219 443.652344 57.15625 C 419.898438 38.703125 388.910156 22.386719 385.738281 20.574219 C 389.179688 30.777344 397.191406 56.941406 400.277344 85.015625 L 400.21875 85.023438 L 400.277344 85.539062 L 399.054688 85.671875 C 395.765625 55.75 387.957031 30.761719 384.089844 20.234375 C 370.398438 14.480469 362.433594 12.597656 353.953125 10.425781 Z M 36.148438 269.503906 L 87.902344 336.480469 L 88.234375 335.660156 L 88.570312 335.792969 C 119.40625 308.042969 119.75 307.738281 154.707031 278.351562 C 107.960938 274.609375 91.359375 273.421875 36.148438 269.503906 Z M 243.089844 176.863281 L 304.71875 193.265625 C 285.226562 172.484375 264.5 151.210938 231.757812 117.84375 L 232.078125 117.527344 C 226.898438 112.226562 221.496094 106.714844 215.824219 100.933594 L 215.152344 100.035156 L 214.761719 100.324219 Z M 10.808594 301.53125 L 8.546875 284.804688 L 7.898438 285.238281 C 3.273438 291.710938 2.855469 292.300781 1.65625 297.003906 C 1.601562 319.378906 4 341.601562 8.984375 363.394531 L 9.097656 363.363281 C 14.363281 386.113281 15.339844 388.882812 22.835938 408.949219 C 19.601562 376.546875 19.574219 361.441406 21.371094 340.753906 C 20.589844 339.46875 19.777344 338.128906 18.929688 336.730469 C 18.898438 336.675781 18.875 336.621094 18.859375 336.5625 C 14.683594 319.855469 12.074219 309.941406 10.507812 301.589844 Z M 216.15625 554.226562 C 211.339844 561.640625 207.03125 567.207031 200.394531 575.648438 C 230.589844 586.378906 263.011719 593.039062 294.90625 593.367188 C 261.632812 584.097656 259.855469 582.9375 216.867188 554.445312 C 216.714844 554.421875 216.589844 554.371094 216.476562 554.308594 L 216.429688 554.292969 L 216.269531 554.253906 Z M 63.335938 402.015625 C 49.410156 406.664062 40.332031 408.988281 25.117188 413.300781 L 75.347656 435.773438 L 110.011719 451.773438 L 121.46875 457.058594 C 92.492188 431.695312 91.1875 430.390625 63.34375 402.546875 L 63.6875 402.199219 C 63.554688 402.179688 63.429688 402.117188 63.335938 402.015625 Z M 577.589844 307.929688 C 565.238281 309.421875 555.421875 310.605469 546.761719 311.609375 L 546.707031 311.953125 C 546.707031 338.070312 545.953125 342.003906 544.375 363.539062 C 553.148438 349.722656 563.644531 331.59375 577.589844 307.929688 Z M 457.527344 468.546875 C 404.722656 442.390625 403.394531 441.683594 339.140625 406.773438 C 337.652344 443.449219 337.605469 444.644531 336.164062 477.773438 C 374.253906 477.050781 395.648438 474.902344 457.527344 468.546875 Z M 458.503906 471.675781 L 350.28125 551.726562 L 350.3125 551.789062 C 350.160156 551.863281 350.007812 551.949219 349.855469 552.042969 L 349.757812 552.117188 C 379.828125 546.910156 398.414062 543.664062 413.546875 540.246094 C 435.585938 510.367188 436.863281 508.222656 458.503906 471.675781 Z M 268.628906 54.667969 C 255.347656 64.679688 242.566406 75.378906 219.378906 93.84375 L 215.652344 96.601562 L 217.074219 96.457031 L 305.898438 82.992188 Z M 156.917969 278.53125 C 156.824219 278.59375 156.707031 278.628906 156.585938 278.625 C 156.503906 278.625 156.421875 278.609375 156.351562 278.578125 L 156.320312 278.601562 L 156.664062 278.691406 C 143.296875 328.550781 143.109375 329.246094 132.613281 376.234375 L 227.664062 284.25 C 197.222656 281.78125 174.859375 279.96875 156.917969 278.53125 Z M 484.953125 356.535156 C 474.851562 414.613281 474.644531 415.636719 461.625 467.214844 C 506.535156 415.097656 524.796875 392.808594 542.851562 365.25 C 519.054688 362.195312 515.964844 362.53125 484.953125 356.535156 Z M 334.878906 479.027344 C 315.972656 479.371094 292.875 479.375 258.824219 479.375 C 304.585938 520.609375 305.402344 521.296875 345.476562 551.851562 C 341.082031 521.585938 340.949219 520.703125 334.832031 480.417969 C 334.824219 480.378906 334.824219 480.335938 334.824219 480.296875 Z M 310.023438 193.789062 L 413.738281 239.5 L 385.195312 176.125 L 310.152344 193.507812 L 310.164062 193.511719 Z M 544.527344 311.867188 C 513.203125 315.472656 496.089844 316.773438 423.164062 322.261719 C 454.558594 338.449219 455.203125 338.792969 484.679688 354.546875 C 517.234375 333.011719 517.84375 332.582031 544.839844 312.082031 C 544.738281 312.035156 544.632812 311.996094 544.527344 311.996094 Z M 492.785156 259.816406 L 492.808594 259.835938 L 545.816406 309.785156 C 555.296875 251.90625 555.410156 250.765625 557.414062 198.671875 Z M 34.859375 269.84375 C 45 332.589844 45.507812 334.644531 63.84375 399.566406 C 73.9375 371.210938 74.417969 369.945312 87.371094 337.800781 Z M 577.433594 310.535156 L 577.035156 311.296875 C 563.296875 334.601562 553.703125 350.824219 544.933594 364.523438 L 544.710938 364.871094 C 544.710938 364.871094 551.488281 423.832031 551.304688 426.148438 C 551.601562 425.183594 553.046875 424.761719 552.871094 425.285156 C 557.046875 421.871094 561.550781 417.953125 566.855469 413.277344 L 567.101562 413.058594 L 568.492188 411.835938 L 570.101562 410.414062 L 571.570312 409.113281 C 577.109375 395.566406 581.671875 381.511719 585.171875 367.042969 C 586.121094 342.222656 585.976562 341.011719 578.351562 310.023438 Z M 75.308594 152.734375 L 75.253906 152.652344 L 36.507812 180.328125 C 32.320312 200.359375 32.433594 218.027344 33.050781 264.570312 L 33.144531 264.617188 C 50.984375 209.664062 51.738281 207.730469 75.308594 152.734375 Z M 592.816406 277.832031 C 590.382812 289.316406 589.414062 290.875 578.996094 307.453125 L 578.984375 307.488281 C 579 307.519531 579.007812 307.550781 579.015625 307.585938 C 586.464844 337.835938 587.28125 341.164062 586.632812 360.695312 C 591.097656 340.253906 593.449219 319.050781 593.449219 297.304688 C 593.449219 290.769531 593.238281 284.28125 592.816406 277.832031 Z M 500.972656 149.261719 L 500.695312 148.621094 C 500.605469 148.960938 500.207031 149.3125 500.207031 149.3125 C 500.207031 149.3125 500.085938 149.328125 499.910156 149.238281 L 499.546875 149.054688 L 499.261719 149.410156 C 514.894531 160.707031 531.144531 173.964844 558.109375 195.992188 C 560.511719 171.953125 560.535156 170.949219 556.816406 154.644531 C 552.398438 146.636719 547.621094 138.851562 542.507812 131.316406 Z M 156.328125 219.5 C 86.375 244.335938 85.167969 244.792969 34.90625 268.179688 C 91.648438 272.207031 107.953125 273.371094 155.976562 277.222656 C 155.976562 248.128906 155.980469 247.515625 156.476562 219.632812 Z M 308.472656 83.769531 L 308.507812 190.039062 C 338.375 155.246094 354.632812 137.464844 369.394531 121.171875 L 387.640625 100.84375 L 395.878906 91.300781 L 395.558594 90.976562 Z M 22.460938 342.550781 C 20.835938 363.003906 21.023438 378.488281 24.398438 412.226562 C 39.699219 407.890625 48.785156 405.570312 62.550781 400.980469 C 39.828125 370.683594 38.175781 368.429688 22.460938 342.550781 Z M 388.566406 101.652344 L 388.558594 101.660156 L 370.308594 121.996094 C 355.492188 138.34375 339.175781 156.191406 309.089844 191.246094 L 309.277344 191.800781 L 309.324219 191.839844 L 309.300781 191.871094 L 309.367188 192.070312 L 309.734375 191.949219 L 308.972656 192.519531 L 384.933594 174.925781 L 399.476562 94.421875 L 398.441406 94.539062 L 398.261719 92.945312 L 397.921875 92.992188 L 397.65625 91.128906 Z M 257.582031 479.910156 C 234.433594 522.855469 224.847656 540.636719 216.992188 552.933594 L 217.328125 553.242188 C 280.144531 556.332031 280.761719 556.355469 344.691406 552.800781 C 304.5 522.15625 303.78125 521.539062 257.582031 479.910156 Z M 229.734375 284.609375 L 229.175781 284.5 L 133.421875 377.164062 L 243.90625 391.949219 C 237.496094 346.972656 233.355469 315.625 229.734375 284.609375 Z M 420.636719 323.003906 C 379.886719 364.269531 359.414062 384.996094 339.046875 404.582031 L 339.167969 405.105469 C 339.183594 405.199219 339.183594 405.292969 339.164062 405.386719 C 404.585938 440.929688 405.148438 441.230469 459.636719 468.222656 C 459.527344 467.867188 459.441406 467.527344 459.441406 467.289062 L 459.519531 467.289062 Z M 210.554688 98.25 C 141.542969 99.3125 120.359375 99.714844 96.265625 107.347656 C 88.285156 124.46875 87.085938 127.253906 79.136719 146.71875 L 79.460938 146.863281 L 78.722656 148.519531 L 81.128906 146.648438 L 81.882812 147.621094 L 79.773438 149.261719 C 138.066406 122.320312 139.90625 121.632812 210.554688 98.25 Z M 497.027344 150.226562 L 386.417969 175.84375 L 415.421875 240.242188 L 416.621094 240.769531 L 475.242188 175.402344 L 475.492188 175.625 C 484.367188 165.503906 491.027344 157.65625 497.027344 150.226562 Z M 308.210938 196.996094 C 312.054688 246.03125 312.160156 247.570312 315.679688 300.371094 C 343.359375 305.855469 366.300781 310.417969 418.84375 320.871094 C 375.105469 271.207031 349.371094 241.976562 327.160156 217.570312 C 321.320312 211.171875 315.675781 205.039062 310.117188 199.042969 L 309.046875 197.894531 Z M 577.769531 306.671875 C 577.660156 305.742188 578.6875 304.773438 578.824219 305.414062 C 589.304688 288.734375 589.394531 288.332031 592.417969 273.714844 L 592.523438 273.738281 C 592.011719 267.246094 591.289062 260.8125 590.359375 254.425781 C 580.730469 228.921875 580.121094 227.761719 559.800781 199.867188 L 559.84375 200.101562 L 559.878906 200.300781 L 559.890625 200.34375 L 559.929688 200.546875 L 559.964844 200.714844 L 560 200.855469 L 560.03125 200.988281 L 560.0625 201.117188 L 560.097656 201.25 L 560.136719 201.378906 L 560.191406 201.558594 L 560.234375 201.691406 L 559.066406 202.078125 C 558.835938 201.390625 558.710938 200.699219 558.59375 200.011719 C 556.628906 251.011719 556.445312 252.515625 546.96875 310.347656 C 555.617188 309.34375 565.429688 308.160156 577.769531 306.671875 Z M 478.160156 97.167969 C 475.328125 92.675781 460.65625 71.960938 445.011719 57.796875 C 435.59375 63.171875 424.894531 69.617188 402.566406 88.96875 C 446.226562 92.546875 461.230469 93.054688 478.160156 97.167969 Z M 479.832031 97.183594 C 490.625 98.78125 508.832031 106.570312 524.28125 114.1875 L 524.328125 114.125 L 526.910156 110.585938 C 526.070312 109.308594 525.148438 108.238281 524.003906 106.875 C 505.304688 84.652344 483.402344 65.214844 459.003906 49.269531 C 453.675781 52.269531 449.617188 54.847656 446.132812 57.175781 C 465.453125 75.335938 476.527344 92.335938 479.832031 97.183594 Z M 304.636719 194.515625 L 243.210938 178.167969 L 230.339844 279.152344 L 230.398438 279.671875 L 230.695312 279.769531 C 230.613281 280.007812 230.546875 280.234375 230.488281 280.453125 L 230.496094 280.511719 C 266.667969 238.070312 267.976562 236.554688 304.636719 194.515625 Z M 382.554688 13.691406 C 383.71875 15.933594 384.675781 18.007812 385.109375 18.871094 C 394.300781 23.128906 422.855469 38.769531 444.953125 56.410156 C 447.558594 54.609375 452.40625 51.773438 457.785156 48.476562 C 434.710938 33.558594 409.429688 21.761719 382.554688 13.691406 Z M 337.820312 405.757812 C 318.074219 424.707031 298.050781 442.949219 259.386719 478.144531 C 293.175781 478.144531 316.125 478.136719 334.929688 477.796875 C 336.386719 444.3125 336.425781 443.40625 337.949219 405.777344 Z M 412.039062 240.09375 L 307.992188 194.234375 L 308.054688 195.015625 L 309.164062 196.207031 L 310.53125 197.683594 L 311.007812 198.195312 C 316.628906 204.238281 322.234375 210.332031 328.082031 216.753906 C 352.609375 243.613281 380.589844 275.058594 420.230469 320.0625 C 418.261719 287.089844 416.757812 262.566406 415.265625 242.890625 L 414.796875 241.851562 C 413.828125 241.375 412.859375 240.851562 411.890625 240.53125 Z M 79.28125 150.84375 L 77.070312 151.863281 C 77.050781 151.871094 77.027344 151.882812 77.007812 151.886719 C 52.867188 208.21875 52.277344 209.660156 34.234375 265.242188 C 34.738281 264.730469 35.96875 263.820312 35.96875 263.820312 L 81.046875 213.46875 L 81.503906 213.878906 L 81.054688 213.457031 C 92.523438 201.144531 102.414062 191.066406 113.101562 180.984375 Z M 315.058594 303.5625 L 314.6875 303.5625 L 314.664062 303.683594 L 314.25 303.597656 L 246.242188 392.261719 L 336.917969 404.398438 L 337.3125 404.023438 L 337.601562 403.746094 L 331.054688 374.59375 C 327.902344 360.5625 324.746094 346.527344 321.582031 332.496094 Z M 54.289062 128.574219 C 52.519531 131.117188 50.789062 133.691406 49.101562 136.289062 C 43.222656 155.003906 39.371094 167.285156 36.890625 178.542969 L 76.308594 150.386719 L 76.964844 148.78125 Z M 527.789062 111.46875 L 525.402344 114.742188 C 527.953125 116.003906 530.644531 117.34375 533.507812 118.777344 C 531.636719 116.308594 529.730469 113.867188 527.789062 111.46875 Z M 569.292969 412.765625 L 568.085938 413.832031 L 568.085938 417.285156 C 568.90625 415.433594 569.710938 413.578125 570.496094 411.703125 Z M 231 284.859375 C 234.609375 315.726562 238.738281 346.972656 245.113281 391.710938 L 313.679688 302.316406 L 313.890625 301.265625 C 293.558594 297.238281 270.371094 292.648438 231 284.859375 Z M 212.546875 99.703125 C 185.359375 154.585938 185.003906 155.386719 157.847656 218.414062 C 191.6875 249.691406 192.050781 250.019531 228.664062 282.566406 L 229.101562 279.144531 L 228.976562 278.082031 L 229.242188 278.050781 L 241.9375 178.414062 L 161.558594 219.117188 L 161.003906 218.023438 L 241.859375 177.074219 L 213.960938 101.703125 L 212.902344 99.617188 Z M 411.941406 541.867188 C 397.59375 545.035156 379.972656 548.128906 352.648438 552.863281 L 352.695312 553.414062 L 347.40625 553.855469 L 346.753906 554.339844 C 346.699219 554.378906 346.640625 554.410156 346.578125 554.429688 C 346.429688 554.476562 346.285156 554.523438 346.148438 554.5625 C 322.273438 582.914062 321.542969 583.632812 302.136719 593.34375 C 307.78125 593.253906 313.382812 593.003906 318.941406 592.601562 C 340.035156 590.1875 381.988281 580.476562 411.941406 541.867188 Z M 307.347656 82.773438 L 307.863281 82.695312 L 395.574219 90.03125 L 395.433594 89.167969 C 334.148438 68.421875 331.003906 67.679688 270.496094 53.273438 C 270.167969 53.519531 269.835938 53.765625 269.507812 54.011719 Z M 322.816406 332.367188 C 325.996094 346.488281 329.175781 360.609375 332.347656 374.730469 L 338.636719 402.75 C 358.761719 383.378906 379.128906 362.765625 419.195312 322.191406 C 366.519531 311.714844 343.472656 307.132812 315.890625 301.664062 Z M 114.023438 181.804688 C 103.328125 191.890625 93.433594 201.96875 81.957031 214.292969 C 81.457031 214.851562 34.945312 266.804688 34.953125 266.800781 C 84.554688 243.722656 86.15625 243.109375 155.28125 218.566406 Z M 558.972656 158.628906 C 561.785156 171.398438 561.523438 174.191406 559.238281 197.015625 C 579.566406 224.90625 581.414062 227.46875 589.441406 248.53125 C 584.128906 216.542969 573.675781 186.28125 558.972656 158.628906 Z M 462.683594 541.007812 C 456.195312 546.121094 450.066406 550.273438 439.972656 556.78125 C 448.664062 551.992188 457.085938 546.777344 465.207031 541.171875 L 463.285156 541.027344 M 254.800781 7.996094 C 235.570312 37.589844 235.050781 38.753906 214.230469 95.753906 C 237.890625 76.917969 267.578125 53.722656 267.578125 53.722656 C 260.945312 25.148438 258.714844 22.679688 254.800781 7.996094 Z M 307.007812 83.835938 L 215.921875 98.503906 L 215.226562 98.566406 C 253.042969 137.117188 278.921875 163.746094 306.066406 192.878906 L 306.292969 192.617188 L 307.039062 191.75 L 307.230469 84.003906 Z M 195.773438 19.210938 C 172.78125 27.644531 151.113281 38.851562 131.175781 52.433594 C 136.839844 53.929688 141.335938 55.128906 145.421875 56.449219 C 158.398438 45.421875 195.773438 19.210938 195.773438 19.210938 Z M 419.570312 241.445312 L 491.429688 259.410156 L 555.46875 198.820312 Z M 401.261719 90.097656 C 453.589844 119.828125 475.492188 132.332031 498.246094 148.679688 L 498.277344 148.675781 C 506.386719 138.558594 513.46875 128.988281 523.546875 115.199219 C 487.207031 97.300781 479.671875 96.519531 401.261719 90.097656 Z M 428.488281 562.785156 L 428.441406 562.710938 C 459.351562 542.949219 460.183594 542.417969 488.996094 516.492188 C 452.644531 530.378906 437.453125 536.085938 414.265625 541.347656 L 413.625 542.21875 L 413.371094 542.027344 C 389.78125 572.789062 358.65625 585.578125 335.933594 590.886719 C 368.78125 586.601562 399.941406 576.925781 428.488281 562.785156 Z M 94.671875 107.863281 C 84.644531 111.152344 73.925781 115.710938 58.921875 122.097656 C 57.59375 123.902344 56.285156 125.726562 55 127.558594 L 77.457031 147.574219 C 85.738281 127.292969 86.9375 124.460938 94.671875 107.863281 Z M 353.167969 11.785156 C 319.046875 22.566406 304.324219 28.457031 274.46875 50.335938 L 272.746094 51.605469 L 271.785156 52.3125 C 331.945312 66.640625 334.179688 67.339844 396.898438 88.574219 Z M 399.210938 90.351562 L 399.660156 94.390625 L 400.699219 94.578125 L 386.238281 174.621094 L 496.648438 149.050781 C 474.023438 132.878906 451.839844 120.253906 399.210938 90.351562 Z M 125.421875 458.882812 L 125.769531 459.042969 C 127.285156 421.125 127.324219 420.507812 130.867188 378.5 C 96.132812 390.714844 77.511719 397.261719 64.402344 401.65625 L 64.347656 401.8125 C 93.003906 430.46875 93.441406 430.902344 125.421875 458.882812 Z M 335.785156 405.488281 L 245.378906 393.386719 L 245.355469 393.414062 C 248.695312 416.828125 252.644531 443.929688 257.445312 476.546875 C 257.515625 476.324219 257.605469 476.101562 257.71875 475.878906 L 258.269531 476.152344 L 258.851562 476.347656 L 258.800781 476.492188 C 296.523438 442.15625 316.460938 423.992188 335.785156 405.488281 Z M 213.527344 554.613281 L 213.65625 554.933594 C 192.347656 563.6875 177.386719 563.875 170.769531 563.523438 C 179.941406 567.789062 189.441406 571.710938 199.171875 575.210938 C 205.558594 567.09375 209.789062 561.648438 214.332031 554.769531 L 213.6875 554.644531 Z M 208.839844 100.113281 C 140.398438 122.769531 137.949219 123.730469 80.496094 150.28125 L 114.003906 180.136719 C 135.617188 159.832031 160.746094 139.257812 208.839844 100.113281 Z M 46.566406 140.257812 C 33.5 161.085938 22.957031 183.644531 15.375 207.515625 C 19.835938 197.9375 21.714844 195.535156 32.527344 181.691406 L 33.011719 182.070312 L 32.65625 181.570312 L 35.398438 179.609375 C 37.683594 168.839844 41.210938 157.320312 46.566406 140.257812 Z M 32.121094 269.671875 L 30.328125 270.570312 C 19.003906 277.046875 17.738281 277.859375 9.667969 283.90625 L 12.242188 302.957031 L 12.03125 302.988281 C 13.617188 310.976562 16.140625 320.625 20.027344 336.171875 L 21.558594 338.695312 C 23.074219 322.726562 26.414062 303.0625 32.121094 269.671875 Z M 500.496094 148.15625 L 500.484375 148.132812 L 541.800781 130.28125 C 539.644531 127.136719 537.429688 124.03125 535.160156 120.976562 C 531.386719 119.089844 527.90625 117.351562 524.664062 115.75 C 514.964844 129.03125 508.039062 138.398438 500.332031 148.074219 L 500.457031 148.136719 C 500.472656 148.144531 500.484375 148.148438 500.496094 148.15625 Z M 342.941406 554.128906 C 281.421875 557.546875 279.582031 557.535156 219.28125 554.570312 C 262.128906 582.964844 262.6875 583.140625 299.515625 593.371094 L 300.242188 593.367188 L 300.449219 593.367188 L 300.226562 592.921875 C 320.464844 582.804688 320.976562 582.535156 344.042969 555.152344 L 342.90625 555.480469 L 342.738281 554.886719 L 342.464844 554.335938 C 342.621094 554.257812 342.78125 554.191406 342.941406 554.128906 Z M 417.46875 242.1875 L 417.234375 242.445312 C 417.140625 242.554688 417.007812 242.621094 416.871094 242.640625 C 416.832031 242.757812 416.800781 242.875 416.757812 242.992188 C 416.746094 243.035156 416.730469 243.074219 416.714844 243.113281 L 416.820312 243.34375 L 416.566406 243.460938 L 416.546875 243.503906 C 418.027344 263.179688 419.527344 287.683594 421.492188 320.5625 C 442.234375 303.359375 458.027344 290.113281 470.816406 279.371094 L 470.585938 279.128906 L 490.367188 260.414062 Z M 125.183594 460.308594 L 124.75 459.929688 L 25.132812 414.660156 L 97.421875 489.082031 C 109.554688 476.441406 109.820312 476.167969 125.183594 460.308594 Z M 275.695312 2.015625 C 275.640625 2.019531 275.585938 2.023438 275.53125 2.027344 C 271.445312 2.292969 260.808594 4.136719 255.757812 6.804688 C 259.882812 22.277344 261.824219 23.339844 268.480469 52.011719 L 271.796875 50.589844 L 273.152344 49.777344 C 303.511719 27.460938 318.234375 21.535156 352.527344 10.695312 L 351.960938 10.132812 L 351.933594 10.425781 C 326.535156 5.957031 301.929688 2.828125 275.695312 2.015625 Z M 35.03125 181.382812 L 33.441406 182.519531 C 20.511719 199.070312 20.5 199.09375 13.238281 215.171875 L 13.078125 215.101562 C 9.722656 226.75 7.070312 238.683594 5.164062 250.859375 L 5.464844 250.820312 L 9.117188 278.976562 L 8.507812 279.054688 L 9.117188 278.988281 L 9.507812 282.492188 C 17.585938 276.445312 18.75 275.769531 31.871094 268.273438 C 31.226562 219.855469 30.992188 201.476562 35.03125 181.382812 Z M 3.902344 259.839844 C 2.613281 270.621094 1.875 281.921875 1.695312 292.675781 C 2.546875 290.621094 3.820312 288.828125 6.960938 284.433594 L 7.226562 284.621094 L 7.152344 284.375 L 7.09375 284.296875 L 8.363281 283.347656 L 7.894531 279.128906 L 4.664062 254.191406 C 4.390625 256.054688 4.136719 257.945312 3.902344 259.839844 Z M 463.863281 540.070312 L 467.28125 539.730469 C 476.230469 533.441406 484.8125 526.675781 493 519.457031 C 492.375 518.25 491.800781 517.148438 491.257812 516.113281 C 478.1875 527.875 470.6875 534.605469 463.863281 540.070312 Z M 132.167969 378.234375 L 132.160156 378.257812 C 132.148438 378.308594 132.132812 378.355469 132.109375 378.398438 C 128.542969 420.710938 128.515625 421.144531 126.984375 459.441406 L 243.628906 393.152344 Z M 264.339844 3.0625 C 256.980469 3.882812 249.703125 4.976562 242.503906 6.335938 C 245.519531 6.09375 248.96875 5.964844 255.035156 5.738281 C 259.53125 4.390625 262.085938 3.625 264.339844 3.0625 Z M 421.90625 322.996094 L 460.558594 466.417969 C 473.449219 415.347656 473.679688 414.167969 483.757812 356.246094 C 483.757812 356.242188 483.917969 355.535156 483.550781 355.335938 C 455.226562 340.121094 453.78125 339.429688 421.90625 322.996094 Z M 33.265625 270.265625 C 27.40625 304.550781 24.0625 324.28125 22.632812 340.46875 C 38.839844 367.167969 40.382812 369.371094 62.289062 398.578125 C 44.34375 335.039062 43.730469 332.441406 33.722656 270.523438 C 33.722656 270.523438 33.382812 270.390625 33.265625 270.265625 Z M 460.105469 472.210938 L 459.710938 472.050781 C 438.175781 508.421875 436.695312 510.921875 415.386719 539.828125 C 438.140625 534.574219 453.566406 528.714844 490.464844 514.613281 C 485.5625 505.425781 482.21875 500.726562 460.730469 470.648438 Z M 211.09375 99.863281 C 162.125 139.71875 136.726562 160.484375 114.921875 180.960938 L 156.601562 218.097656 L 156.652344 218.078125 C 183.773438 155.140625 184.21875 154.117188 211.09375 99.863281 Z M 351.105469 9.285156 L 349.507812 7.703125 L 350.566406 7.082031 L 350.8125 7.5 L 350.878906 7.390625 L 354.136719 9.488281 C 366.71875 12.285156 370.632812 13.605469 383.375 18.355469 C 383.390625 18.363281 380.9375 13.210938 380.9375 13.210938 C 354.441406 5.414062 326.390625 1.230469 297.375 1.230469 C 293.75 1.230469 290.140625 1.292969 286.546875 1.425781 C 308.664062 2.507812 329.683594 5.328125 351.105469 9.285156 Z M 82.691406 501.082031 C 102.453125 523.5 132.546875 545.289062 167.679688 562.066406 C 170.941406 562.292969 186.851562 564.332031 211.949219 554.300781 C 140.847656 539.863281 98.347656 492.140625 98.347656 492.140625 L 99.273438 491.328125 C 99.273438 491.328125 141.371094 538.570312 211.789062 553.015625 L 211.972656 552.464844 L 211.632812 552.332031 L 212.089844 551.1875 L 214.195312 552.03125 C 171.46875 512.742188 170.441406 511.609375 126.550781 461.160156 L 126.257812 461.117188 C 126.21875 461.113281 126.175781 461.101562 126.136719 461.089844 C 110.6875 477.035156 110.457031 477.277344 98.265625 489.972656 C 98.734375 490.53125 97.570312 491.050781 97.398438 490.84375 L 96.824219 490.84375 Z M 129.839844 53.347656 C 103.214844 71.699219 79.722656 94.292969 60.371094 120.144531 C 74.945312 113.945312 85.441406 109.519531 95.386719 106.328125 C 96.082031 104.835938 96.921875 103.679688 97.730469 101.953125 C 97.640625 102.144531 133.058594 67.078125 144.316406 57.394531 C 140.195312 56.085938 135.625 54.878906 129.839844 53.347656 Z M 157.707031 220.730469 L 157.210938 277.320312 C 174.957031 278.742188 197.007812 280.53125 226.882812 282.953125 L 225.503906 281.574219 L 225.59375 281.484375 C 192.132812 251.738281 190.234375 250.019531 159.660156 221.761719 L 159.308594 222.15625 Z M 196.054688 20.28125 C 172.496094 37.179688 162.097656 44.886719 146.792969 56.90625 C 161.066406 61.734375 171.285156 68.710938 212.109375 96.828125 C 205.964844 68.210938 202.375 53.800781 200.824219 43.988281 L 200.984375 43.964844 Z M 545.476562 313.144531 C 518.617188 333.535156 517.90625 334.039062 485.589844 355.417969 C 515.957031 362.167969 542.625 364.1875 543.34375 364.402344 C 545.0625 341.117188 545.476562 338.96875 545.476562 313.144531 Z M 459.226562 469.609375 C 396.035156 476.097656 374.613281 478.277344 336.109375 479.003906 L 336.054688 480.289062 C 342.222656 520.882812 342.304688 521.433594 346.8125 552.496094 C 347.683594 552.097656 348.382812 551.558594 349.035156 551.121094 Z M 128.214844 460.15625 L 256.496094 478.554688 C 251.617188 445.414062 247.609375 417.929688 244.226562 394.226562 Z M 155.148438 279.585938 C 120.488281 308.722656 120.109375 309.066406 89.214844 336.867188 L 89.117188 336.757812 L 88.78125 337.597656 L 131.375 376.136719 C 141.828125 329.34375 142.082031 328.332031 155.148438 279.585938 Z M 88.289062 338.8125 C 75.53125 370.472656 75.027344 371.8125 64.929688 400.183594 C 77.925781 395.8125 96.371094 389.328125 130.050781 377.484375 L 127.996094 375.429688 L 128.363281 375.066406 Z M 498.488281 150.375 C 483.714844 168.71875 465.175781 189.320312 419.195312 240.273438 L 557.335938 196.945312 C 530.367188 174.917969 514.128906 161.671875 498.488281 150.375 Z M 253.976562 7.007812 C 241.109375 7.484375 240.746094 7.542969 228.121094 9.5625 L 228.097656 9.425781 C 218.175781 11.8125 208.441406 14.707031 198.917969 18.078125 L 197.105469 19.175781 C 200.09375 33.378906 213.0625 95.371094 213.0625 95.371094 C 234.03125 37.964844 234.480469 37.003906 253.976562 7.007812 Z M 491.785156 260.765625 L 471.695312 279.773438 L 471.925781 280.046875 C 459.191406 290.742188 443.472656 303.925781 422.828125 321.054688 C 496.316406 315.523438 513.222656 314.238281 544.875 310.589844 L 492.082031 260.84375 Z M 145.695312 57.839844 C 134.289062 67.585938 99.226562 102.699219 99.226562 102.699219 C 99.082031 102.828125 96.976562 105.828125 96.976562 105.828125 C 120.667969 98.5 142.273438 98.070312 210.230469 97.023438 C 169.910156 69.261719 160.140625 62.621094 145.695312 57.839844 Z M 305.152344 197.054688 L 304.507812 196.535156 C 269.03125 237.21875 267.261719 239.269531 231.875 280.785156 L 232.148438 281.011719 L 230.746094 282.691406 L 230.851562 283.578125 C 270.660156 291.453125 293.964844 296.0625 314.429688 300.121094 C 310.894531 247.105469 310.820312 245.988281 306.863281 195.554688 L 306.585938 195.261719 Z M 543.636719 366.078125 C 525.546875 393.746094 507.910156 415.382812 463.242188 467.222656 C 516.691406 447.6875 531.039062 442.320312 549.035156 428.34375 L 550.027344 424.035156 C 546 390.839844 543.636719 366.078125 543.636719 366.078125 Z M 128.414062 461.425781 C 171.6875 511.167969 172.671875 512.179688 216.070312 552.085938 C 223.867188 539.859375 233.410156 522.167969 256.265625 479.765625 Z M 566.855469 414.914062 C 561.277344 419.824219 556.585938 423.890625 552.203125 427.414062 C 551.941406 428.285156 551.097656 429.816406 551.097656 429.816406 C 526.617188 470.714844 523.128906 478.597656 492.863281 515.648438 L 492.292969 515.183594 L 492.199219 515.261719 C 492.746094 516.300781 493.324219 517.40625 493.953125 518.617188 C 524.667969 491.308594 549.671875 457.707031 566.9375 419.839844 L 566.855469 419.839844 Z M 566.855469 414.914062 " fill-opacity="1" fill-rule="evenodd"/><path fill="#ffbd59" d="M 399.050781 93.949219 C 401.136719 93.949219 403.222656 92.386719 403.222656 89.777344 C 403.222656 87.691406 401.660156 85.605469 399.050781 85.605469 C 396.964844 85.605469 394.878906 87.171875 394.878906 89.777344 C 394.878906 92.386719 396.445312 93.949219 399.050781 93.949219 Z M 399.050781 93.949219 " fill-opacity="1" fill-rule="evenodd"/><path fill="#ffbd59" d="M 444.753906 60.917969 C 446.839844 60.917969 448.925781 59.355469 448.925781 56.746094 C 448.925781 54.660156 447.363281 52.578125 444.753906 52.578125 C 442.667969 52.578125 440.582031 54.140625 440.582031 56.746094 C 440.582031 59.355469 442.148438 60.917969 444.753906 60.917969 Z M 444.753906 60.917969 " fill-opacity="1" fill-rule="evenodd"/><path fill="#ffbd59" d="M 269.21875 57.449219 C 271.304688 57.449219 273.386719 55.886719 273.386719 53.277344 C 273.386719 51.191406 271.824219 49.105469 269.21875 49.105469 C 267.132812 49.105469 265.046875 50.671875 265.046875 53.277344 C 265.046875 55.363281 267.132812 57.449219 269.21875 57.449219 Z M 269.21875 57.449219 " fill-opacity="1" fill-rule="evenodd"/><path fill="#ffbd59" d="M 307.800781 197.710938 C 309.886719 197.710938 311.972656 196.148438 311.972656 193.542969 C 311.972656 191.457031 310.410156 189.371094 307.800781 189.371094 C 305.714844 189.371094 303.628906 190.933594 303.628906 193.542969 C 303.628906 196.148438 305.714844 197.710938 307.800781 197.710938 Z M 307.800781 197.710938 " fill-opacity="1" fill-rule="evenodd"/><path fill="#ffbd59" d="M 229.066406 287.398438 C 231.152344 287.398438 233.238281 285.832031 233.238281 283.226562 C 233.238281 281.140625 231.675781 279.054688 229.066406 279.054688 C 226.980469 279.054688 224.894531 280.617188 224.894531 283.226562 C 224.894531 285.832031 226.980469 287.398438 229.066406 287.398438 Z M 229.066406 287.398438 " fill-opacity="1" fill-rule="evenodd"/><path fill="#ffbd59" d="M 156.589844 222.742188 C 158.675781 222.742188 160.761719 221.175781 160.761719 218.570312 C 160.761719 216.484375 159.195312 214.398438 156.589844 214.398438 C 154.503906 214.398438 152.417969 215.964844 152.417969 218.570312 C 152.417969 221.175781 154.503906 222.742188 156.589844 222.742188 Z M 156.589844 222.742188 " fill-opacity="1" fill-rule="evenodd"/><path fill="#ffbd59" d="M 78.898438 153.914062 C 80.984375 153.914062 83.066406 152.347656 83.066406 149.742188 C 83.066406 147.65625 81.503906 145.570312 78.898438 145.570312 C 76.8125 145.570312 74.726562 147.132812 74.726562 149.742188 C 74.726562 151.828125 76.8125 153.914062 78.898438 153.914062 Z M 78.898438 153.914062 " fill-opacity="1" fill-rule="evenodd"/><path fill="#ffbd59" d="M 33.535156 271.753906 C 35.621094 271.753906 37.703125 270.191406 37.703125 267.582031 C 37.703125 265.496094 36.140625 263.410156 33.535156 263.410156 C 31.449219 263.410156 29.363281 264.976562 29.363281 267.582031 C 29.363281 270.191406 30.925781 271.753906 33.535156 271.753906 Z M 33.535156 271.753906 " fill-opacity="1" fill-rule="evenodd"/><path fill="#ffbd59" d="M 63.777344 405.761719 C 65.863281 405.761719 67.945312 404.195312 67.945312 401.589844 C 67.945312 398.980469 66.382812 397.417969 63.777344 397.417969 C 61.691406 397.417969 59.605469 398.980469 59.605469 401.589844 C 59.605469 404.195312 61.691406 405.761719 63.777344 405.761719 Z M 63.777344 405.761719 " fill-opacity="1" fill-rule="evenodd"/><path fill="#ffbd59" d="M 126.347656 464.160156 C 128.433594 464.160156 130.519531 462.597656 130.519531 459.988281 C 130.519531 457.902344 128.953125 455.816406 126.347656 455.816406 C 124.261719 455.816406 122.175781 457.382812 122.175781 459.988281 C 122.175781 462.074219 124.261719 464.160156 126.347656 464.160156 Z M 126.347656 464.160156 " fill-opacity="1" fill-rule="evenodd"/><path fill="#ffbd59" d="M 256.703125 483.453125 C 258.789062 483.453125 260.875 481.886719 260.875 479.28125 C 260.875 477.195312 259.308594 475.109375 256.703125 475.109375 C 254.617188 475.109375 252.53125 476.675781 252.53125 479.28125 C 253.054688 481.886719 254.617188 483.453125 256.703125 483.453125 Z M 256.703125 483.453125 " fill-opacity="1" fill-rule="evenodd"/><path fill="#ffbd59" d="M 314.582031 305.125 C 316.667969 305.125 318.75 303.5625 318.75 300.953125 C 318.75 298.347656 317.1875 296.78125 314.582031 296.78125 C 312.496094 296.78125 310.410156 298.347656 310.410156 300.953125 C 310.410156 303.5625 312.496094 305.125 314.582031 305.125 Z M 314.582031 305.125 " fill-opacity="1" fill-rule="evenodd"/><path fill="#ffbd59" d="M 131.5625 381.253906 C 133.648438 381.253906 135.734375 379.6875 135.734375 377.082031 C 135.734375 374.996094 134.167969 372.910156 131.5625 372.910156 C 128.953125 372.910156 127.390625 374.476562 127.390625 377.082031 C 127.910156 379.6875 129.476562 381.253906 131.5625 381.253906 Z M 131.5625 381.253906 " fill-opacity="1" fill-rule="evenodd"/><path fill="#ffbd59" d="M 244.1875 397.9375 C 246.273438 397.9375 248.359375 396.375 248.359375 393.765625 C 248.359375 391.679688 246.796875 389.597656 244.1875 389.597656 C 241.582031 389.597656 240.019531 391.160156 240.019531 393.765625 C 240.019531 396.375 242.101562 397.9375 244.1875 397.9375 Z M 244.1875 397.9375 " fill-opacity="1" fill-rule="evenodd"/><path fill="#ffbd59" d="M 421.472656 327.027344 C 423.558594 327.027344 425.644531 325.460938 425.644531 322.855469 C 425.644531 320.769531 424.078125 318.683594 421.472656 318.683594 C 419.386719 318.683594 417.300781 320.246094 417.300781 322.855469 C 417.300781 324.941406 418.863281 327.027344 421.472656 327.027344 Z M 421.472656 327.027344 " fill-opacity="1" fill-rule="evenodd"/><path fill="#ffbd59" d="M 545.570312 315.03125 C 547.65625 315.03125 549.742188 313.46875 549.742188 310.863281 C 549.742188 308.777344 548.179688 306.691406 545.570312 306.691406 C 543.484375 306.691406 541.398438 308.253906 541.398438 310.863281 C 541.921875 313.46875 543.484375 315.03125 545.570312 315.03125 Z M 545.570312 315.03125 " fill-opacity="1" fill-rule="evenodd"/><path fill="#ffbd59" d="M 557.5625 201.882812 C 559.648438 201.882812 561.734375 200.320312 561.734375 197.710938 C 561.734375 195.628906 560.171875 193.542969 557.5625 193.542969 C 555.476562 193.542969 553.390625 195.105469 553.390625 197.710938 C 553.914062 199.796875 555.476562 201.882812 557.5625 201.882812 Z M 557.5625 201.882812 " fill-opacity="1" fill-rule="evenodd"/><path fill="#ffbd59" d="M 497.601562 152.871094 C 499.6875 152.871094 501.773438 151.304688 501.773438 148.699219 C 501.773438 146.613281 500.207031 144.527344 497.601562 144.527344 C 495.515625 144.527344 493.429688 146.089844 493.429688 148.699219 C 493.429688 151.304688 495.515625 152.871094 497.601562 152.871094 Z M 497.601562 152.871094 " fill-opacity="1" fill-rule="evenodd"/><path fill="#ffbd59" d="M 212.902344 101.25 C 214.988281 101.25 217.074219 99.683594 217.074219 97.078125 C 217.074219 94.472656 215.511719 92.90625 212.902344 92.90625 C 210.816406 92.90625 208.730469 94.472656 208.730469 97.078125 C 208.730469 99.683594 210.816406 101.25 212.902344 101.25 Z M 212.902344 101.25 " fill-opacity="1" fill-rule="evenodd"/><path fill="#ffbd59" d="M 96.625 110.113281 C 98.710938 110.113281 100.796875 108.550781 100.796875 105.941406 C 100.796875 103.855469 99.234375 101.769531 96.625 101.769531 C 94.539062 101.769531 92.453125 103.335938 92.453125 105.941406 C 92.976562 108.027344 94.539062 110.113281 96.625 110.113281 Z M 96.625 110.113281 " fill-opacity="1" fill-rule="evenodd"/><path fill="#ffbd59" d="M 415.738281 245.160156 C 417.820312 245.160156 419.90625 243.597656 419.90625 240.992188 C 419.90625 238.90625 418.34375 236.820312 415.738281 236.820312 C 413.652344 236.820312 411.566406 238.382812 411.566406 240.992188 C 411.566406 243.078125 413.652344 245.160156 415.738281 245.160156 Z M 415.738281 245.160156 " fill-opacity="1" fill-rule="evenodd"/><path fill="#ffbd59" d="M 460.578125 472.503906 C 462.664062 472.503906 464.75 470.9375 464.75 468.332031 C 464.75 466.246094 463.1875 464.160156 460.578125 464.160156 C 458.492188 464.160156 456.40625 465.726562 456.40625 468.332031 C 456.40625 470.9375 458.492188 472.503906 460.578125 472.503906 Z M 460.578125 472.503906 " fill-opacity="1" fill-rule="evenodd"/><path fill="#ffbd59" d="M 551.304688 430.265625 C 553.390625 430.265625 554.957031 428.703125 554.957031 426.617188 C 554.957031 424.53125 553.390625 422.96875 551.304688 422.96875 C 549.222656 422.96875 547.65625 424.53125 547.65625 426.617188 C 547.65625 428.703125 549.222656 430.265625 551.304688 430.265625 Z M 551.304688 430.265625 " fill-opacity="1" fill-rule="evenodd"/><path fill="#ffbd59" d="M 578.421875 311.382812 C 580.507812 311.382812 582.59375 309.820312 582.59375 307.210938 C 582.59375 305.125 581.027344 303.039062 578.421875 303.039062 C 576.335938 303.039062 574.25 304.605469 574.25 307.210938 C 574.769531 309.296875 576.335938 311.382812 578.421875 311.382812 Z M 578.421875 311.382812 " fill-opacity="1" fill-rule="evenodd"/><path fill="#ffbd59" d="M 338.566406 408.890625 C 340.652344 408.890625 342.738281 407.324219 342.738281 404.71875 C 342.738281 402.632812 341.171875 400.546875 338.566406 400.546875 C 336.480469 400.546875 334.394531 402.109375 334.394531 404.71875 C 334.394531 407.324219 335.960938 408.890625 338.566406 408.890625 Z M 338.566406 408.890625 " fill-opacity="1" fill-rule="evenodd"/><path fill="#ffbd59" d="M 215.511719 557.496094 C 217.597656 557.496094 219.683594 555.929688 219.683594 553.324219 C 219.683594 551.238281 218.117188 549.152344 215.511719 549.152344 C 212.902344 549.152344 211.339844 550.714844 211.339844 553.324219 C 211.339844 555.929688 213.425781 557.496094 215.511719 557.496094 Z M 215.511719 557.496094 " fill-opacity="1" fill-rule="evenodd"/><path fill="#ffbd59" d="M 346.386719 557.496094 C 348.472656 557.496094 350.558594 555.929688 350.558594 553.324219 C 350.558594 551.238281 348.996094 549.152344 346.386719 549.152344 C 344.300781 549.152344 342.214844 550.714844 342.214844 553.324219 C 342.214844 555.410156 344.300781 557.496094 346.386719 557.496094 Z M 346.386719 557.496094 " fill-opacity="1" fill-rule="evenodd"/><path fill="#ffbd59" d="M 96.105469 493.878906 C 98.191406 493.878906 100.277344 492.316406 100.277344 489.710938 C 100.277344 487.101562 98.710938 485.539062 96.105469 485.539062 C 94.019531 485.539062 91.933594 487.101562 91.933594 489.710938 C 91.933594 492.316406 94.019531 493.878906 96.105469 493.878906 Z M 96.105469 493.878906 " fill-opacity="1" fill-rule="evenodd"/><path fill="#ffbd59" d="M 491.863281 518.910156 C 493.945312 518.753906 496.035156 517.34375 496.035156 514.738281 C 496.035156 512.652344 494.472656 510.566406 491.863281 510.566406 C 489.257812 510.566406 487.695312 512.128906 487.695312 514.738281 C 487.695312 517.238281 489.566406 519.078125 491.863281 518.910156 Z M 491.863281 518.910156 " fill-opacity="1" fill-rule="evenodd"/><path fill="#ffbd59" d="M 353.167969 14.171875 C 355.253906 14.171875 357.335938 12.605469 357.335938 10 C 357.335938 7.914062 355.773438 5.828125 353.167969 5.828125 C 351.082031 5.828125 348.996094 7.394531 348.996094 10 C 348.996094 12.605469 351.082031 14.171875 353.167969 14.171875 Z M 353.167969 14.171875 " fill-opacity="1" fill-rule="evenodd"/><path fill="#93bed1" d="M 480.195312 98.503906 L 479.148438 98.503906 C 486.976562 113.863281 492.304688 126.726562 497.601562 147.636719 L 498.648438 147.636719 C 494.011719 127.382812 488.402344 113.621094 480.195312 98.503906 Z M 480.195312 98.503906 " fill-opacity="1" fill-rule="evenodd"/></svg>