<svg xmlns="http://www.w3.org/2000/svg" xmlns:xlink="http://www.w3.org/1999/xlink" width="793" zoomAndPan="magnify" viewBox="0 0 595.5 595.499986" height="793" preserveAspectRatio="xMidYMid meet" version="1.0"><path fill="#ffbd59" d="M 470.863281 41.132812 C 544.210938 82.742188 563.214844 163.773438 570.382812 194.328125 C 594.777344 298.335938 569.714844 453.15625 446.941406 529.539062 C 339.183594 596.574219 222.480469 561.929688 206.476562 556.894531 C 179.636719 548.453125 115.246094 527.273438 70.902344 465.117188 C 1.871094 368.367188 14.761719 219.09375 83.710938 167.03125 C 116.097656 142.578125 131.496094 161.734375 188.972656 132.953125 C 265.957031 94.410156 263.390625 48.0625 325.148438 25.515625 C 394.867188 0.0585938 464.078125 37.285156 470.863281 41.132812 " fill-opacity="1" fill-rule="nonzero"/><path fill="#ffbd59" d="M 418.507812 463.339844 C 414.898438 454.851562 418.976562 444.867188 427.625 441.039062 C 436.269531 437.210938 446.207031 440.984375 449.820312 449.472656 C 453.433594 457.960938 449.351562 467.945312 440.707031 471.773438 C 432.058594 475.601562 422.121094 471.824219 418.507812 463.339844 Z M 411.066406 471.886719 C 411.90625 473.15625 412.839844 474.339844 413.863281 475.425781 L 410.875 482 L 416.113281 485.824219 L 421.628906 481.074219 C 422.992188 481.726562 424.414062 482.269531 425.875 482.6875 L 426.550781 489.789062 L 433.085938 490.441406 L 435.550781 483.664062 C 437.066406 483.546875 438.585938 483.292969 440.101562 482.917969 L 444.273438 488.632812 L 450.351562 485.941406 L 449.105469 478.929688 C 450.410156 478.0625 451.625 477.097656 452.746094 476.050781 L 459.28125 478.839844 L 463.273438 473.523438 L 458.65625 468.171875 C 459.347656 466.796875 459.933594 465.371094 460.394531 463.910156 L 467.5625 463.039062 L 468.40625 456.523438 L 461.648438 454.261719 C 461.570312 452.761719 461.363281 451.257812 461.023438 449.761719 L 466.894531 445.457031 L 464.355469 439.488281 L 457.265625 440.921875 C 456.425781 439.652344 455.484375 438.472656 454.464844 437.386719 L 457.460938 430.8125 L 452.21875 426.988281 L 446.699219 431.738281 C 445.332031 431.082031 443.917969 430.542969 442.457031 430.125 L 441.777344 423.023438 L 435.242188 422.371094 L 432.78125 429.148438 C 431.261719 429.265625 429.742188 429.515625 428.230469 429.894531 L 424.0625 424.179688 L 417.980469 426.871094 L 419.222656 433.878906 C 417.921875 434.753906 416.703125 435.714844 415.585938 436.761719 L 409.050781 433.972656 L 405.050781 439.289062 L 409.679688 444.640625 C 408.980469 446.015625 408.398438 447.4375 407.9375 448.902344 L 400.765625 449.773438 L 399.925781 456.289062 L 406.679688 458.546875 C 406.757812 460.050781 406.96875 461.554688 407.300781 463.050781 L 401.433594 467.355469 L 403.976562 473.324219 L 411.066406 471.886719 " fill-opacity="1" fill-rule="nonzero"/><path fill="#ffbd59" d="M 310.332031 484.925781 C 304.152344 470.40625 311.132812 453.320312 325.925781 446.769531 C 340.726562 440.21875 357.730469 446.679688 363.914062 461.199219 C 370.097656 475.722656 363.109375 492.804688 348.316406 499.359375 C 333.519531 505.910156 316.515625 499.449219 310.332031 484.925781 Z M 297.59375 499.554688 C 299.035156 501.730469 300.632812 503.753906 302.386719 505.609375 L 297.261719 516.859375 L 306.230469 523.402344 L 315.675781 515.277344 C 318.007812 516.398438 320.4375 517.320312 322.933594 518.039062 L 324.09375 530.1875 L 335.277344 531.304688 L 339.496094 519.707031 C 342.085938 519.503906 344.6875 519.078125 347.28125 518.433594 L 354.414062 528.210938 L 364.820312 523.601562 L 362.6875 511.609375 C 364.917969 510.117188 367 508.472656 368.914062 506.679688 L 380.101562 511.457031 L 386.941406 502.359375 L 379.023438 493.199219 C 380.21875 490.847656 381.214844 488.40625 382.003906 485.902344 L 394.273438 484.414062 L 395.710938 473.261719 L 384.152344 469.398438 C 384.023438 466.828125 383.664062 464.25 383.089844 461.695312 L 393.132812 454.332031 L 388.785156 444.113281 L 376.652344 446.574219 C 375.210938 444.394531 373.613281 442.375 371.859375 440.519531 L 376.984375 429.265625 L 368.011719 422.726562 L 358.570312 430.851562 C 356.234375 429.730469 353.808594 428.804688 351.3125 428.089844 L 350.152344 415.941406 L 338.964844 414.824219 L 334.75 426.421875 C 332.160156 426.625 329.554688 427.050781 326.964844 427.695312 L 319.832031 417.917969 L 309.425781 422.527344 L 311.558594 434.519531 C 309.328125 436.007812 307.246094 437.65625 305.328125 439.449219 L 294.144531 434.671875 L 287.304688 443.769531 L 295.222656 452.929688 C 294.027344 455.28125 293.027344 457.71875 292.238281 460.222656 L 279.972656 461.714844 L 278.535156 472.863281 L 290.09375 476.730469 C 290.222656 479.300781 290.578125 481.875 291.15625 484.429688 L 281.113281 491.796875 L 285.460938 502.011719 L 297.59375 499.554688 " fill-opacity="1" fill-rule="nonzero"/><path fill="#05347e" d="M 415.585938 431.382812 C 407.011719 424.339844 398.007812 417.773438 388.792969 411.511719 C 370.085938 398.800781 350.367188 387.4375 330.441406 376.429688 C 319.957031 370.636719 309.074219 365.394531 298.332031 360.003906 C 287.519531 354.582031 276.683594 349.210938 265.84375 343.839844 C 255.9375 338.933594 246.027344 334.027344 236.140625 329.09375 C 213.664062 252.695312 189.253906 166.089844 194.101562 166.089844 L 562.636719 155.628906 C 571.308594 155.628906 577.128906 162.726562 575.605469 171.449219 L 530.945312 427.464844 C 529.429688 436.1875 521.132812 443.28125 512.460938 443.28125 L 430.445312 443.28125 C 425.609375 439.1875 420.476562 435.402344 415.585938 431.382812 " fill-opacity="1" fill-rule="nonzero"/><path fill="#ffffff" d="M 183.582031 156.523438 L 554.996094 156.523438 C 563.191406 156.523438 568.671875 163.207031 567.238281 171.449219 L 522.574219 427.464844 C 521.132812 435.707031 513.324219 442.386719 505.128906 442.386719 L 133.71875 442.386719 C 125.519531 442.386719 120.039062 435.707031 121.476562 427.464844 L 166.136719 171.449219 C 167.574219 163.207031 175.386719 156.523438 183.582031 156.523438 " fill-opacity="1" fill-rule="nonzero"/><path fill="#ffbd59" d="M 192.738281 166.402344 L 543.75 166.402344 C 551.496094 166.402344 556.675781 172.617188 555.320312 180.292969 L 513.113281 418.625 C 511.753906 426.296875 504.371094 432.515625 496.625 432.515625 L 145.609375 432.515625 C 137.863281 432.515625 132.683594 426.296875 134.042969 418.625 L 176.246094 180.292969 C 177.605469 172.617188 184.988281 166.402344 192.738281 166.402344 " fill-opacity="1" fill-rule="nonzero"/><path fill="#05347e" d="M 47.6875 442.539062 L 506.390625 442.539062 C 512.503906 442.539062 517.476562 447.320312 517.476562 453.464844 C 517.476562 459.613281 512.503906 464.394531 506.390625 464.394531 L 47.6875 464.394531 C 41.566406 464.394531 36.601562 459.621094 36.601562 453.464844 C 36.601562 447.308594 41.566406 442.539062 47.6875 442.539062 " fill-opacity="1" fill-rule="nonzero"/><path fill="#000000" d="M 295.5625 443.75 C 295.011719 443.75 294.558594 443.300781 294.558594 442.746094 C 294.558594 442.195312 295.007812 441.746094 295.5625 441.742188 L 505.125 441.386719 C 512.847656 441.386719 520.230469 435.0625 521.589844 427.292969 L 566.246094 171.273438 C 566.902344 167.527344 566.058594 164.03125 563.871094 161.433594 C 561.753906 158.910156 558.601562 157.527344 554.992188 157.527344 L 367.613281 156.570312 C 367.058594 156.566406 366.613281 156.113281 366.617188 155.5625 C 366.617188 155.011719 367.066406 154.570312 367.621094 154.570312 L 554.996094 155.523438 C 559.203125 155.523438 562.902344 157.164062 565.40625 160.144531 C 567.976562 163.203125 568.976562 167.277344 568.222656 171.617188 L 523.5625 427.636719 C 522.046875 436.324219 513.777344 443.386719 505.132812 443.386719 L 295.5625 443.75 " fill-opacity="1" fill-rule="nonzero"/><path fill="#ffffff" d="M 473.679688 407.46875 L 181.558594 406.886719 C 180.519531 406.886719 179.878906 406.121094 180.066406 405.105469 L 235.796875 102.972656 C 236.019531 101.753906 237.3125 100.6875 238.554688 100.6875 L 530.675781 101.269531 C 531.714844 101.269531 532.355469 102.035156 532.167969 103.054688 L 476.4375 405.1875 C 476.210938 406.402344 474.917969 407.472656 473.679688 407.46875 " fill-opacity="1" fill-rule="nonzero"/><path fill="#ffbd59" d="M 484.363281 179.644531 L 280.328125 179.238281 L 281.941406 170.480469 L 485.980469 170.886719 L 484.363281 179.644531 " fill-opacity="1" fill-rule="nonzero"/><path fill="#ffbd59" d="M 427.890625 196.78125 L 277.144531 196.476562 L 278.761719 187.71875 L 429.503906 188.023438 L 427.890625 196.78125 " fill-opacity="1" fill-rule="nonzero"/><path fill="#ffbd59" d="M 475.757812 226.289062 L 271.722656 225.882812 L 273.335938 217.125 L 477.375 217.527344 L 475.757812 226.289062 " fill-opacity="1" fill-rule="nonzero"/><path fill="#ffbd59" d="M 419.289062 243.417969 L 268.542969 243.117188 L 270.160156 234.363281 L 420.90625 234.660156 L 419.289062 243.417969 " fill-opacity="1" fill-rule="nonzero"/><path fill="#ffbd59" d="M 467.160156 272.925781 L 263.121094 272.523438 L 264.734375 263.765625 L 468.773438 264.171875 L 467.160156 272.925781 " fill-opacity="1" fill-rule="nonzero"/><path fill="#ffbd59" d="M 410.683594 290.0625 L 259.9375 289.761719 L 261.554688 281.007812 L 412.296875 281.304688 L 410.683594 290.0625 " fill-opacity="1" fill-rule="nonzero"/><path fill="#ffbd59" d="M 458.554688 319.570312 L 254.515625 319.167969 L 256.128906 310.40625 L 460.167969 310.8125 L 458.554688 319.570312 " fill-opacity="1" fill-rule="nonzero"/><path fill="#ffbd59" d="M 402.082031 336.703125 L 251.335938 336.40625 L 252.953125 327.648438 L 403.695312 327.949219 L 402.082031 336.703125 " fill-opacity="1" fill-rule="nonzero"/><path fill="#ffbd59" d="M 267.773438 175.238281 C 267.21875 178.238281 264.246094 180.664062 261.136719 180.65625 C 258.027344 180.652344 255.953125 178.21875 256.503906 175.214844 C 257.058594 172.214844 260.03125 169.789062 263.140625 169.796875 C 266.253906 169.800781 268.328125 172.242188 267.773438 175.238281 " fill-opacity="1" fill-rule="nonzero"/><path fill="#ffbd59" d="M 257.726562 222.515625 C 257.171875 225.515625 254.203125 227.941406 251.09375 227.933594 C 247.980469 227.929688 245.90625 225.492188 246.460938 222.492188 C 247.011719 219.492188 249.980469 217.066406 253.09375 217.074219 C 256.207031 217.082031 258.277344 219.515625 257.726562 222.515625 " fill-opacity="1" fill-rule="nonzero"/><path fill="#ffbd59" d="M 249.539062 268.089844 C 248.984375 271.089844 246.015625 273.519531 242.902344 273.507812 C 239.792969 273.503906 237.71875 271.070312 238.273438 268.070312 C 238.824219 265.070312 241.796875 262.640625 244.90625 262.648438 C 248.015625 262.652344 250.089844 265.089844 249.539062 268.089844 " fill-opacity="1" fill-rule="nonzero"/><path fill="#ffbd59" d="M 239.496094 315.367188 C 238.941406 318.367188 235.96875 320.792969 232.855469 320.785156 C 229.746094 320.777344 227.671875 318.34375 228.222656 315.347656 C 228.777344 312.347656 231.75 309.917969 234.863281 309.921875 C 237.972656 309.929688 240.046875 312.367188 239.496094 315.367188 " fill-opacity="1" fill-rule="nonzero"/><path fill="#ffbd59" d="M 449.6875 360.460938 L 245.648438 360.050781 L 247.265625 351.292969 L 451.300781 351.699219 L 449.6875 360.460938 " fill-opacity="1" fill-rule="nonzero"/><path fill="#ffbd59" d="M 393.214844 377.589844 L 242.46875 377.292969 L 244.082031 368.535156 L 394.828125 368.835938 L 393.214844 377.589844 " fill-opacity="1" fill-rule="nonzero"/><path fill="#ffbd59" d="M 230.625 356.253906 C 230.074219 359.253906 227.105469 361.679688 223.992188 361.671875 C 220.878906 361.667969 218.804688 359.230469 219.359375 356.230469 C 219.914062 353.234375 222.882812 350.804688 225.996094 350.8125 C 229.105469 350.816406 231.179688 353.253906 230.625 356.253906 " fill-opacity="1" fill-rule="nonzero"/><path fill="#ffbd59" d="M 434.085938 151.84375 L 310.367188 151.597656 L 312.644531 139.246094 L 436.363281 139.488281 L 434.085938 151.84375 " fill-opacity="1" fill-rule="nonzero"/><path fill="#000000" d="M 473.683594 408.472656 C 473.679688 408.472656 473.679688 408.472656 473.679688 408.472656 L 259.933594 408.042969 C 259.382812 408.042969 258.933594 407.597656 258.9375 407.042969 C 258.9375 406.492188 259.382812 406.042969 259.9375 406.042969 L 259.941406 406.042969 L 473.679688 406.464844 C 473.679688 406.464844 473.679688 406.464844 473.683594 406.464844 C 474.441406 406.464844 475.320312 405.742188 475.449219 405.003906 L 531.179688 102.871094 C 531.199219 102.761719 531.21875 102.554688 531.113281 102.425781 C 531.03125 102.328125 530.875 102.273438 530.671875 102.269531 L 449.472656 101.691406 C 448.921875 101.6875 448.476562 101.234375 448.480469 100.683594 C 448.484375 100.132812 448.933594 99.691406 449.480469 99.691406 C 449.484375 99.691406 449.484375 99.691406 449.484375 99.691406 L 530.679688 100.269531 C 531.484375 100.273438 532.1875 100.582031 532.652344 101.148438 C 533.117188 101.707031 533.296875 102.449219 533.148438 103.238281 L 477.421875 405.367188 C 477.109375 407.050781 475.398438 408.472656 473.683594 408.472656 " fill-opacity="1" fill-rule="nonzero"/><path fill="#ffffff" d="M 313.359375 57.515625 L 102.679688 57.515625 C 95.003906 57.515625 87.984375 63.808594 86.996094 71.570312 L 66.988281 229.375 C 66.003906 237.132812 71.429688 243.421875 79.105469 243.421875 L 289.785156 243.421875 C 297.460938 243.421875 304.480469 237.132812 305.464844 229.375 L 325.480469 71.570312 C 326.464844 63.808594 321.039062 57.515625 313.359375 57.515625 " fill-opacity="1" fill-rule="nonzero"/><path fill="#000000" d="M 102.679688 58.382812 C 95.433594 58.382812 88.78125 64.347656 87.851562 71.679688 L 67.839844 229.484375 C 67.390625 233.023438 68.335938 236.335938 70.5 238.804688 C 72.621094 241.226562 75.675781 242.5625 79.105469 242.5625 L 289.78125 242.5625 C 297.03125 242.5625 303.683594 236.597656 304.613281 229.265625 L 324.625 71.464844 C 325.074219 67.921875 324.128906 64.609375 321.964844 62.140625 C 319.839844 59.71875 316.785156 58.382812 313.355469 58.382812 Z M 289.78125 244.289062 L 79.105469 244.289062 C 75.175781 244.289062 71.664062 242.746094 69.210938 239.949219 C 66.714844 237.097656 65.621094 233.300781 66.132812 229.265625 L 86.144531 71.464844 C 87.179688 63.296875 94.597656 56.65625 102.679688 56.65625 L 313.355469 56.65625 C 317.285156 56.65625 320.800781 58.199219 323.25 60.996094 C 325.746094 63.847656 326.839844 67.640625 326.328125 71.679688 L 306.316406 229.484375 C 305.28125 237.648438 297.863281 244.289062 289.78125 244.289062 " fill-opacity="1" fill-rule="nonzero"/><path fill="#000000" d="M 313.289062 81.4375 L 96.90625 81.4375 C 96.429688 81.4375 96.046875 81.050781 96.046875 80.574219 C 96.046875 80.09375 96.429688 79.710938 96.90625 79.710938 L 313.289062 79.710938 C 313.761719 79.710938 314.144531 80.09375 314.144531 80.574219 C 314.144531 81.050781 313.761719 81.4375 313.289062 81.4375 " fill-opacity="1" fill-rule="nonzero"/><path fill="#ffbd59" d="M 112.179688 68.328125 C 111.929688 70.316406 110.128906 71.929688 108.160156 71.929688 C 106.191406 71.929688 104.800781 70.316406 105.054688 68.328125 C 105.304688 66.335938 107.105469 64.722656 109.074219 64.722656 C 111.042969 64.722656 112.433594 66.335938 112.179688 68.328125 " fill-opacity="1" fill-rule="nonzero"/><path fill="#ffbd59" d="M 126.4375 68.328125 C 126.1875 70.316406 124.386719 71.929688 122.417969 71.929688 C 120.449219 71.929688 119.058594 70.316406 119.308594 68.328125 C 119.5625 66.335938 121.363281 64.722656 123.332031 64.722656 C 125.300781 64.722656 126.691406 66.335938 126.4375 68.328125 " fill-opacity="1" fill-rule="nonzero"/><path fill="#ffbd59" d="M 140.695312 68.328125 C 140.441406 70.316406 138.640625 71.929688 136.675781 71.929688 C 134.703125 71.929688 133.3125 70.316406 133.566406 68.328125 C 133.816406 66.335938 135.621094 64.722656 137.589844 64.722656 C 139.554688 64.722656 140.945312 66.335938 140.695312 68.328125 " fill-opacity="1" fill-rule="nonzero"/><path fill="#000000" d="M 315.019531 69.191406 L 294.941406 69.191406 C 294.464844 69.191406 294.078125 68.804688 294.078125 68.328125 C 294.078125 67.847656 294.464844 67.460938 294.941406 67.460938 L 315.019531 67.460938 C 315.492188 67.460938 315.875 67.847656 315.875 68.328125 C 315.875 68.804688 315.492188 69.191406 315.019531 69.191406 " fill-opacity="1" fill-rule="nonzero"/><path fill="#000000" d="M 285.910156 69.191406 L 188.8125 69.191406 C 188.335938 69.191406 187.953125 68.804688 187.953125 68.328125 C 187.953125 67.847656 188.335938 67.460938 188.8125 67.460938 L 285.910156 67.460938 C 286.386719 67.460938 286.769531 67.847656 286.769531 68.328125 C 286.769531 68.804688 286.386719 69.191406 285.910156 69.191406 " fill-opacity="1" fill-rule="nonzero"/><path fill="#000000" d="M 166.949219 69.191406 L 149.25 69.191406 C 148.773438 69.191406 148.390625 68.804688 148.390625 68.328125 C 148.390625 67.847656 148.773438 67.460938 149.25 67.460938 L 166.949219 67.460938 C 167.425781 67.460938 167.808594 67.847656 167.808594 68.328125 C 167.808594 68.804688 167.425781 69.191406 166.949219 69.191406 " fill-opacity="1" fill-rule="nonzero"/><path fill="#ffbd59" d="M 89.726562 216.09375 L 283.835938 216.09375 C 284.929688 216.09375 285.847656 215.277344 285.988281 214.195312 L 300.769531 97.632812 C 300.933594 96.328125 299.925781 95.179688 298.617188 95.179688 L 104.507812 95.179688 C 103.417969 95.179688 102.496094 95.992188 102.359375 97.082031 L 87.578125 213.644531 C 87.414062 214.941406 88.421875 216.09375 89.726562 216.09375 " fill-opacity="1" fill-rule="nonzero"/><path fill="#05347e" d="M 239.445312 157.890625 C 236.628906 181.746094 214.484375 201.082031 189.988281 201.082031 C 165.492188 201.082031 147.917969 181.746094 150.734375 157.890625 C 153.550781 134.035156 175.691406 114.695312 200.1875 114.695312 C 224.6875 114.695312 242.261719 134.035156 239.445312 157.890625 " fill-opacity="1" fill-rule="nonzero"/><path fill="#ffffff" d="M 193.007812 170.976562 L 192.152344 170.976562 C 186.265625 170.976562 182.054688 166.191406 182.753906 160.28125 L 185.265625 139.023438 C 185.960938 133.117188 191.300781 128.328125 197.1875 128.328125 L 198.042969 128.328125 C 203.929688 128.328125 208.136719 133.117188 207.441406 139.023438 L 204.929688 160.28125 C 204.234375 166.191406 198.894531 170.976562 193.007812 170.976562 " fill-opacity="1" fill-rule="nonzero"/><path fill="#ffffff" d="M 193.675781 178.109375 L 191.335938 178.109375 C 186.867188 178.109375 182.855469 176.363281 180.042969 173.199219 C 177.1875 169.988281 175.914062 165.722656 176.449219 161.179688 L 178.890625 140.496094 C 178.953125 139.949219 179.457031 139.554688 180.003906 139.621094 C 180.550781 139.6875 180.945312 140.183594 180.878906 140.730469 L 178.4375 161.414062 C 177.96875 165.378906 179.070312 169.089844 181.539062 171.867188 C 183.96875 174.597656 187.445312 176.105469 191.335938 176.105469 L 193.675781 176.105469 C 201.347656 176.105469 208.332031 169.839844 209.238281 162.132812 L 211.835938 140.152344 C 211.898438 139.601562 212.402344 139.210938 212.949219 139.273438 C 213.496094 139.339844 213.890625 139.835938 213.824219 140.386719 L 211.230469 162.367188 C 210.203125 171.046875 202.332031 178.109375 193.675781 178.109375 " fill-opacity="1" fill-rule="nonzero"/><path fill="#ffffff" d="M 203.847656 190.660156 L 177.007812 190.660156 C 175.8125 190.660156 174.957031 189.6875 175.097656 188.488281 L 175.117188 188.316406 C 175.261719 187.113281 176.34375 186.144531 177.539062 186.144531 L 204.382812 186.144531 C 205.578125 186.144531 206.433594 187.113281 206.289062 188.316406 L 206.269531 188.488281 C 206.128906 189.6875 205.042969 190.660156 203.847656 190.660156 " fill-opacity="1" fill-rule="nonzero"/><path fill="#ffffff" d="M 192.007812 190.488281 L 188.546875 190.488281 L 190.699219 172.242188 L 194.164062 172.242188 L 192.007812 190.488281 " fill-opacity="1" fill-rule="nonzero"/><path fill="#05347e" d="M 139.347656 186.476562 C 138.953125 186.476562 138.578125 186.238281 138.417969 185.847656 C 135.015625 177.347656 133.816406 167.765625 134.953125 158.128906 C 136.578125 144.371094 142.621094 131.433594 152.421875 120.714844 C 152.796875 120.308594 153.429688 120.28125 153.839844 120.652344 C 154.246094 121.027344 154.273438 121.660156 153.902344 122.070312 C 144.382812 132.472656 138.519531 145.023438 136.941406 158.363281 C 135.84375 167.667969 137 176.914062 140.28125 185.101562 C 140.484375 185.613281 140.234375 186.199219 139.722656 186.40625 C 139.597656 186.453125 139.472656 186.476562 139.347656 186.476562 " fill-opacity="1" fill-rule="nonzero"/><path fill="#05347e" d="M 135.371094 195.988281 C 135.019531 195.988281 134.675781 195.796875 134.492188 195.464844 C 128.398438 184.363281 126.011719 171.414062 127.597656 158.015625 C 129.632812 140.757812 138.070312 124.351562 151.351562 111.828125 C 151.757812 111.449219 152.390625 111.464844 152.769531 111.867188 C 153.148438 112.273438 153.132812 112.90625 152.726562 113.289062 C 139.789062 125.488281 131.566406 141.457031 129.585938 158.246094 C 128.054688 171.230469 130.355469 183.765625 136.25 194.503906 C 136.515625 194.988281 136.339844 195.59375 135.851562 195.863281 C 135.699219 195.945312 135.535156 195.988281 135.371094 195.988281 " fill-opacity="1" fill-rule="nonzero"/><path fill="#05347e" d="M 131.019531 203.304688 C 130.691406 203.304688 130.371094 203.148438 130.179688 202.855469 C 121.453125 189.621094 117.890625 173.742188 119.875 156.9375 C 122.261719 136.710938 132.433594 117.785156 148.511719 103.652344 C 148.925781 103.285156 149.558594 103.328125 149.925781 103.746094 C 150.289062 104.160156 150.25 104.792969 149.832031 105.15625 C 134.125 118.964844 124.195312 137.433594 121.863281 157.171875 C 119.9375 173.5 123.390625 188.917969 131.851562 201.75 C 132.15625 202.210938 132.03125 202.832031 131.566406 203.140625 C 131.398438 203.25 131.207031 203.304688 131.019531 203.304688 " fill-opacity="1" fill-rule="nonzero"/><path fill="#05347e" d="M 239.464844 192.589844 C 239.246094 192.589844 239.023438 192.519531 238.839844 192.371094 C 238.410156 192.027344 238.339844 191.394531 238.683594 190.964844 C 246.449219 181.269531 251.285156 169.917969 252.679688 158.128906 C 254.054688 146.5 251.964844 135.292969 246.640625 125.707031 C 246.375 125.226562 246.546875 124.617188 247.03125 124.347656 C 247.511719 124.078125 248.125 124.253906 248.394531 124.738281 C 253.917969 134.6875 256.089844 146.316406 254.667969 158.363281 C 253.234375 170.527344 248.246094 182.230469 240.246094 192.214844 C 240.050781 192.460938 239.757812 192.589844 239.464844 192.589844 " fill-opacity="1" fill-rule="nonzero"/><path fill="#05347e" d="M 242.472656 199.433594 C 242.234375 199.433594 242 199.351562 241.808594 199.183594 C 241.394531 198.816406 241.355469 198.183594 241.722656 197.769531 C 251.851562 186.273438 258.113281 172.523438 259.828125 158.015625 C 261.683594 142.300781 257.832031 127.121094 248.992188 115.28125 C 248.664062 114.835938 248.753906 114.207031 249.195312 113.875 C 249.640625 113.546875 250.269531 113.636719 250.597656 114.082031 C 259.746094 126.339844 263.734375 142.023438 261.816406 158.25 C 260.058594 173.167969 253.625 187.289062 243.222656 199.09375 C 243.023438 199.320312 242.75 199.433594 242.472656 199.433594 " fill-opacity="1" fill-rule="nonzero"/><path fill="#05347e" d="M 244.488281 205.761719 C 244.238281 205.761719 243.988281 205.664062 243.792969 205.476562 C 243.394531 205.09375 243.386719 204.457031 243.769531 204.0625 C 256.460938 190.933594 264.578125 174.199219 266.613281 156.933594 C 268.859375 137.929688 263.714844 119.96875 252.125 106.363281 C 251.765625 105.941406 251.816406 105.308594 252.238281 104.953125 C 252.660156 104.59375 253.289062 104.644531 253.648438 105.066406 C 265.601562 119.097656 270.914062 137.601562 268.605469 157.171875 C 266.515625 174.863281 258.207031 192.011719 245.207031 205.453125 C 245.011719 205.660156 244.753906 205.761719 244.488281 205.761719 " fill-opacity="1" fill-rule="nonzero"/><path fill="#ffffff" d="M 33.421875 482.585938 C 38.542969 472.054688 39.027344 461.441406 33.421875 450.71875 L 37.449219 445.894531 L 147.484375 449.511719 L 143.691406 484.46875 L 37.175781 485.695312 L 33.421875 482.585938 " fill-opacity="1" fill-rule="nonzero"/><path fill="#000000" d="M 34.664062 482.3125 L 37.535156 484.691406 L 142.789062 483.476562 L 146.371094 450.476562 L 37.902344 446.910156 L 34.617188 450.851562 C 39.679688 460.933594 39.695312 471.511719 34.664062 482.3125 Z M 37.175781 486.699219 C 36.941406 486.699219 36.71875 486.617188 36.539062 486.46875 L 32.785156 483.359375 C 32.429688 483.0625 32.320312 482.566406 32.523438 482.152344 C 37.773438 471.339844 37.777344 461.210938 32.535156 451.183594 C 32.347656 450.824219 32.394531 450.386719 32.65625 450.078125 L 36.675781 445.25 C 36.875 445.011719 37.179688 444.882812 37.480469 444.890625 L 147.515625 448.511719 C 147.792969 448.519531 148.058594 448.644531 148.238281 448.855469 C 148.421875 449.066406 148.507812 449.34375 148.480469 449.621094 L 144.6875 484.574219 C 144.632812 485.082031 144.210938 485.464844 143.703125 485.472656 L 37.1875 486.699219 C 37.183594 486.699219 37.179688 486.699219 37.175781 486.699219 " fill-opacity="1" fill-rule="nonzero"/><path fill="#ffbd59" d="M 235.613281 442.042969 L 31.382812 442.042969 C 28.996094 442.042969 27.058594 443.980469 27.058594 446.367188 C 27.058594 448.753906 28.996094 450.691406 31.382812 450.691406 L 125.277344 450.691406 C 132.152344 450.691406 137.726562 456.261719 137.726562 463.140625 L 137.726562 470.136719 C 137.726562 477.015625 132.152344 482.585938 125.277344 482.585938 L 31.382812 482.585938 C 28.996094 482.585938 27.058594 484.519531 27.058594 486.910156 C 27.058594 489.296875 28.996094 491.234375 31.382812 491.234375 L 235.613281 491.234375 C 248.292969 491.234375 258.570312 480.953125 258.570312 468.277344 L 258.570312 465 C 258.570312 452.320312 248.292969 442.042969 235.613281 442.042969 " fill-opacity="1" fill-rule="nonzero"/><path fill="#000000" d="M 31.382812 483.589844 C 29.550781 483.589844 28.0625 485.078125 28.0625 486.910156 C 28.0625 488.742188 29.550781 490.230469 31.382812 490.230469 L 235.613281 490.230469 C 247.71875 490.230469 257.566406 480.382812 257.566406 468.277344 L 257.566406 465 C 257.566406 452.894531 247.71875 443.046875 235.613281 443.046875 L 31.382812 443.046875 C 29.550781 443.046875 28.0625 444.535156 28.0625 446.367188 C 28.0625 448.199219 29.550781 449.6875 31.382812 449.6875 L 125.277344 449.6875 C 132.691406 449.6875 138.726562 455.722656 138.726562 463.140625 L 138.726562 470.136719 C 138.726562 477.554688 132.691406 483.589844 125.277344 483.589844 Z M 235.613281 492.234375 L 31.382812 492.234375 C 28.445312 492.234375 26.058594 489.84375 26.058594 486.910156 C 26.058594 483.972656 28.445312 481.585938 31.382812 481.585938 L 125.277344 481.585938 C 131.589844 481.585938 136.722656 476.453125 136.722656 470.136719 L 136.722656 463.140625 C 136.722656 456.828125 131.589844 451.691406 125.277344 451.691406 L 31.382812 451.691406 C 28.445312 451.691406 26.058594 449.304688 26.058594 446.367188 C 26.058594 443.433594 28.445312 441.042969 31.382812 441.042969 L 235.613281 441.042969 C 248.824219 441.042969 259.570312 451.792969 259.570312 465 L 259.570312 468.277344 C 259.570312 481.484375 248.824219 492.234375 235.613281 492.234375 " fill-opacity="1" fill-rule="nonzero"/><path fill="#ffbd59" d="M 95.382812 460.960938 L 87.339844 460.960938 C 86.789062 460.960938 86.339844 460.511719 86.339844 459.957031 C 86.339844 459.40625 86.789062 458.957031 87.339844 458.957031 L 95.382812 458.957031 C 95.9375 458.957031 96.382812 459.40625 96.382812 459.957031 C 96.382812 460.511719 95.9375 460.960938 95.382812 460.960938 " fill-opacity="1" fill-rule="nonzero"/><path fill="#ffbd59" d="M 82.308594 460.960938 L 39.734375 460.960938 C 39.183594 460.960938 38.734375 460.511719 38.734375 459.957031 C 38.734375 459.40625 39.183594 458.957031 39.734375 458.957031 L 82.308594 458.957031 C 82.859375 458.957031 83.308594 459.40625 83.308594 459.957031 C 83.308594 460.511719 82.859375 460.960938 82.308594 460.960938 " fill-opacity="1" fill-rule="nonzero"/><path fill="#ffbd59" d="M 90.496094 466.167969 L 40.125 466.167969 C 39.574219 466.167969 39.125 465.722656 39.125 465.167969 C 39.125 464.613281 39.574219 464.164062 40.125 464.164062 L 90.496094 464.164062 C 91.050781 464.164062 91.496094 464.613281 91.496094 465.167969 C 91.496094 465.722656 91.050781 466.167969 90.496094 466.167969 " fill-opacity="1" fill-rule="nonzero"/><path fill="#ffbd59" d="M 103.164062 475.503906 L 94.011719 475.503906 C 93.460938 475.503906 93.011719 475.054688 93.011719 474.5 C 93.011719 473.949219 93.460938 473.496094 94.011719 473.496094 L 103.164062 473.496094 C 103.71875 473.496094 104.167969 473.949219 104.167969 474.5 C 104.167969 475.054688 103.71875 475.503906 103.164062 475.503906 " fill-opacity="1" fill-rule="nonzero"/><path fill="#ffbd59" d="M 90.105469 475.503906 L 39.734375 475.503906 C 39.183594 475.503906 38.734375 475.054688 38.734375 474.5 C 38.734375 473.949219 39.183594 473.496094 39.734375 473.496094 L 90.105469 473.496094 C 90.65625 473.496094 91.105469 473.949219 91.105469 474.5 C 91.105469 475.054688 90.65625 475.503906 90.105469 475.503906 " fill-opacity="1" fill-rule="nonzero"/><path fill="#ffffff" d="M 36.601562 541.480469 L 221.078125 541.480469 L 221.078125 496.285156 L 36.601562 496.285156 C 42.046875 511.546875 42.195312 526.621094 36.601562 541.480469 " fill-opacity="1" fill-rule="nonzero"/><path fill="#000000" d="M 38.03125 540.476562 L 220.074219 540.476562 L 220.074219 497.289062 L 38.007812 497.289062 C 42.953125 511.984375 42.964844 526.5 38.03125 540.476562 Z M 221.078125 542.480469 L 36.601562 542.480469 C 36.273438 542.480469 35.964844 542.320312 35.777344 542.050781 C 35.589844 541.78125 35.546875 541.4375 35.664062 541.128906 C 41.070312 526.765625 41.070312 511.792969 35.65625 496.621094 C 35.546875 496.3125 35.59375 495.972656 35.785156 495.707031 C 35.96875 495.441406 36.277344 495.28125 36.601562 495.28125 L 221.078125 495.28125 C 221.628906 495.28125 222.078125 495.730469 222.078125 496.285156 L 222.078125 541.480469 C 222.078125 542.035156 221.628906 542.480469 221.078125 542.480469 " fill-opacity="1" fill-rule="nonzero"/><path fill="#05347e" d="M 198.867188 498.515625 L 35.332031 498.515625 C 33.367188 498.515625 31.769531 496.917969 31.769531 494.953125 C 31.769531 492.988281 33.367188 491.390625 35.332031 491.390625 L 247.546875 491.390625 C 256.191406 491.390625 263.195312 498.398438 263.195312 507.039062 L 263.195312 531.644531 C 263.195312 540.285156 256.191406 547.292969 247.546875 547.292969 L 35.332031 547.292969 C 33.367188 547.292969 31.769531 545.695312 31.769531 543.730469 C 31.769531 541.761719 33.367188 540.167969 35.332031 540.167969 L 198.867188 540.167969 C 204.972656 540.167969 209.921875 535.21875 209.921875 529.113281 L 209.921875 509.566406 C 209.921875 503.464844 204.972656 498.515625 198.867188 498.515625 " fill-opacity="1" fill-rule="nonzero"/><path fill="#000000" d="M 35.332031 541.171875 C 33.921875 541.171875 32.773438 542.320312 32.773438 543.730469 C 32.773438 545.144531 33.921875 546.289062 35.332031 546.289062 L 247.546875 546.289062 C 255.625 546.289062 262.195312 539.71875 262.195312 531.644531 L 262.195312 507.039062 C 262.195312 498.964844 255.625 492.394531 247.546875 492.394531 L 35.332031 492.394531 C 33.921875 492.394531 32.773438 493.542969 32.773438 494.953125 C 32.773438 496.363281 33.921875 497.515625 35.332031 497.515625 L 198.867188 497.515625 C 205.515625 497.515625 210.925781 502.917969 210.925781 509.566406 L 210.925781 529.113281 C 210.925781 535.761719 205.515625 541.171875 198.867188 541.171875 Z M 247.546875 548.292969 L 35.332031 548.292969 C 32.816406 548.292969 30.769531 546.246094 30.769531 543.730469 C 30.769531 541.214844 32.816406 539.167969 35.332031 539.167969 L 198.867188 539.167969 C 204.410156 539.167969 208.921875 534.65625 208.921875 529.113281 L 208.921875 509.566406 C 208.921875 504.027344 204.410156 499.515625 198.867188 499.515625 L 35.332031 499.515625 C 32.816406 499.515625 30.769531 497.46875 30.769531 494.953125 C 30.769531 492.4375 32.816406 490.390625 35.332031 490.390625 L 247.546875 490.390625 C 256.726562 490.390625 264.195312 497.859375 264.195312 507.039062 L 264.195312 531.644531 C 264.195312 540.824219 256.726562 548.292969 247.546875 548.292969 " fill-opacity="1" fill-rule="nonzero"/><path fill="#ffbd59" d="M 69.777344 508.015625 L 42.535156 508.015625 C 41.984375 508.015625 41.535156 507.570312 41.535156 507.015625 C 41.535156 506.464844 41.984375 506.015625 42.535156 506.015625 L 69.777344 506.015625 C 70.332031 506.015625 70.78125 506.464844 70.78125 507.015625 C 70.78125 507.570312 70.332031 508.015625 69.777344 508.015625 " fill-opacity="1" fill-rule="nonzero"/><path fill="#ffbd59" d="M 123.964844 508.015625 L 74.445312 508.015625 C 73.894531 508.015625 73.445312 507.570312 73.445312 507.015625 C 73.445312 506.464844 73.894531 506.015625 74.445312 506.015625 L 123.964844 506.015625 C 124.515625 506.015625 124.964844 506.464844 124.964844 507.015625 C 124.964844 507.570312 124.515625 508.015625 123.964844 508.015625 " fill-opacity="1" fill-rule="nonzero"/><path fill="#ffbd59" d="M 111.183594 514.050781 L 43.109375 514.050781 C 42.558594 514.050781 42.109375 513.601562 42.109375 513.046875 C 42.109375 512.496094 42.558594 512.046875 43.109375 512.046875 L 111.183594 512.046875 C 111.734375 512.046875 112.183594 512.496094 112.183594 513.046875 C 112.183594 513.601562 111.734375 514.050781 111.183594 514.050781 " fill-opacity="1" fill-rule="nonzero"/><path fill="#ffbd59" d="M 130.792969 514.050781 L 116.941406 514.050781 C 116.390625 514.050781 115.941406 513.601562 115.941406 513.046875 C 115.941406 512.496094 116.390625 512.046875 116.941406 512.046875 L 130.792969 512.046875 C 131.347656 512.046875 131.796875 512.496094 131.796875 513.046875 C 131.796875 513.601562 131.347656 514.050781 130.792969 514.050781 " fill-opacity="1" fill-rule="nonzero"/><path fill="#ffbd59" d="M 115.292969 526.644531 L 43.109375 526.644531 C 42.558594 526.644531 42.109375 526.191406 42.109375 525.640625 C 42.109375 525.085938 42.558594 524.636719 43.109375 524.636719 L 115.292969 524.636719 C 115.847656 524.636719 116.296875 525.085938 116.296875 525.640625 C 116.296875 526.191406 115.847656 526.644531 115.292969 526.644531 " fill-opacity="1" fill-rule="nonzero"/><path fill="#ffbd59" d="M 123.964844 526.644531 L 117.691406 526.644531 C 117.140625 526.644531 116.691406 526.191406 116.691406 525.640625 C 116.691406 525.085938 117.140625 524.636719 117.691406 524.636719 L 123.964844 524.636719 C 124.515625 524.636719 124.964844 525.085938 124.964844 525.640625 C 124.964844 526.191406 124.515625 526.644531 123.964844 526.644531 " fill-opacity="1" fill-rule="nonzero"/><path fill="#000000" d="M 137.867188 310.085938 C 132.851562 304.3125 125.179688 302.898438 119.339844 304.300781 C 111.945312 306.078125 108.054688 312.308594 105.308594 316.703125 C 100.457031 324.472656 102.59375 327.402344 98.832031 331.886719 C 92.164062 339.828125 82.261719 334.433594 74.261719 340.140625 C 62.054688 348.839844 59.492188 379.5625 75.273438 391.773438 C 85.800781 399.914062 100.582031 395.84375 104.601562 394.738281 C 116.808594 391.375 132.171875 381.421875 134.761719 367.371094 C 136.902344 355.75 129.507812 345.804688 136.246094 336.214844 C 137.960938 333.777344 139.339844 333.140625 140.652344 330.0625 C 142.785156 325.0625 143.492188 316.558594 137.867188 310.085938 " fill-opacity="1" fill-rule="nonzero"/><path fill="#ffffff" d="M 180.292969 366.121094 C 179.789062 363.859375 179.347656 361.640625 180.480469 359.675781 L 182.152344 356.710938 C 182.421875 356.246094 183 354.390625 184.21875 355.257812 C 185.144531 355.910156 185.210938 356.976562 184.210938 361.148438 C 183.707031 363.242188 184.117188 364.46875 185.117188 365.824219 C 185.183594 365.515625 185.296875 365.167969 185.464844 364.804688 C 186.222656 363.140625 187.769531 361.972656 189.558594 361.601562 C 191.785156 361.144531 195.371094 360.769531 196.320312 363.4375 C 196.984375 365.292969 196.210938 368.558594 192.871094 370.695312 C 192.089844 371.195312 188.074219 373.113281 188.074219 373.113281 C 175.769531 388.816406 157.503906 400.644531 133.914062 375.742188 L 128.117188 354.152344 C 154.550781 386.738281 180.875 368.726562 180.292969 366.121094 " fill-opacity="1" fill-rule="nonzero"/><path fill="#000000" d="M 134.816406 375.234375 C 143.96875 384.832031 152.976562 389.496094 161.636719 389.089844 C 170.347656 388.679688 178.976562 383.097656 187.285156 372.496094 C 187.378906 372.375 187.503906 372.277344 187.640625 372.207031 C 189.234375 371.449219 191.796875 370.195312 192.335938 369.851562 C 195.261719 367.980469 195.878906 365.171875 195.378906 363.777344 C 194.859375 362.320312 192.972656 361.921875 189.761719 362.582031 C 188.253906 362.894531 186.988281 363.878906 186.375 365.222656 C 186.246094 365.503906 186.148438 365.78125 186.097656 366.027344 C 186.019531 366.417969 185.714844 366.71875 185.332031 366.804688 C 184.945312 366.886719 184.546875 366.738281 184.3125 366.417969 C 183.226562 364.945312 182.628906 363.449219 183.238281 360.914062 C 184.207031 356.867188 183.984375 356.316406 183.640625 356.074219 C 183.484375 356.25 183.285156 356.667969 183.207031 356.839844 C 183.132812 356.996094 183.070312 357.125 183.019531 357.214844 L 181.351562 360.167969 C 180.441406 361.75 180.746094 363.542969 181.269531 365.90625 C 181.699219 367.816406 177.761719 370.28125 175.371094 371.4375 C 169.816406 374.121094 150.71875 380.730469 130.230469 358.152344 Z M 160.59375 391.113281 C 151.636719 391.117188 142.425781 386.179688 133.1875 376.429688 C 133.074219 376.308594 132.988281 376.160156 132.949219 376 L 127.152344 354.410156 C 127.027344 353.953125 127.242188 353.476562 127.664062 353.261719 C 128.085938 353.042969 128.597656 353.15625 128.898438 353.519531 C 144.582031 372.859375 159.792969 373.34375 167.464844 371.914062 C 174.582031 370.585938 178.804688 367.183594 179.28125 366.191406 C 178.8125 364.078125 178.28125 361.492188 179.613281 359.179688 L 181.28125 356.21875 C 181.316406 356.152344 181.351562 356.078125 181.394531 355.992188 C 181.679688 355.378906 182.164062 354.347656 183.164062 354.085938 C 183.542969 353.984375 184.132812 353.964844 184.800781 354.4375 C 186.386719 355.566406 186.136719 357.417969 185.183594 361.382812 C 184.980469 362.238281 184.953125 362.898438 185.066406 363.472656 C 186.039062 362.023438 187.582031 360.984375 189.359375 360.621094 C 194.761719 359.507812 196.640625 361.355469 197.265625 363.101562 C 198.105469 365.460938 197.042969 369.21875 193.414062 371.542969 C 192.679688 372.007812 189.617188 373.484375 188.714844 373.917969 C 180.078125 384.878906 171 390.65625 161.730469 391.089844 C 161.351562 391.105469 160.972656 391.113281 160.59375 391.113281 " fill-opacity="1" fill-rule="nonzero"/><path fill="#05347e" d="M 187.082031 345.128906 L 180.660156 380.554688 C 180.1875 383.152344 181.117188 385.460938 182.734375 385.722656 L 185.398438 386.144531 C 187.015625 386.402344 188.707031 384.507812 189.175781 381.914062 L 195.601562 346.484375 L 187.082031 345.128906 " fill-opacity="1" fill-rule="nonzero"/><path fill="#000000" d="M 187.894531 346.269531 L 181.644531 380.730469 C 181.398438 382.089844 181.589844 383.417969 182.140625 384.191406 C 182.359375 384.503906 182.613281 384.6875 182.894531 384.734375 L 185.554688 385.15625 C 186.472656 385.308594 187.804688 383.871094 188.191406 381.734375 L 194.433594 347.3125 Z M 185.695312 387.167969 C 185.542969 387.167969 185.390625 387.15625 185.238281 387.132812 L 182.578125 386.710938 C 181.757812 386.578125 181.042969 386.109375 180.503906 385.347656 C 179.640625 384.132812 179.332031 382.273438 179.675781 380.375 L 186.097656 344.949219 C 186.195312 344.414062 186.703125 344.054688 187.238281 344.136719 L 195.757812 345.496094 C 196.023438 345.539062 196.261719 345.6875 196.417969 345.90625 C 196.574219 346.125 196.632812 346.398438 196.585938 346.664062 L 190.164062 382.09375 C 189.625 385.046875 187.714844 387.167969 185.695312 387.167969 " fill-opacity="1" fill-rule="nonzero"/><path fill="#05347e" d="M 195.03125 349.621094 L 189.175781 381.914062 C 188.707031 384.507812 187.015625 386.402344 185.398438 386.144531 L 182.734375 385.722656 C 181.117188 385.460938 180.1875 383.152344 180.660156 380.554688 L 186.667969 347.359375 L 195.03125 349.621094 " fill-opacity="1" fill-rule="nonzero"/><path fill="#000000" d="M 187.460938 348.609375 L 181.644531 380.730469 C 181.398438 382.089844 181.589844 383.417969 182.140625 384.191406 C 182.359375 384.503906 182.613281 384.6875 182.894531 384.734375 L 185.554688 385.15625 C 186.472656 385.308594 187.804688 383.871094 188.191406 381.734375 L 193.882812 350.347656 Z M 185.695312 387.167969 C 185.542969 387.167969 185.390625 387.15625 185.238281 387.132812 L 182.578125 386.710938 C 181.757812 386.578125 181.042969 386.109375 180.503906 385.347656 C 179.640625 384.132812 179.332031 382.273438 179.675781 380.375 L 185.683594 347.179688 C 185.734375 346.90625 185.898438 346.664062 186.132812 346.511719 C 186.371094 346.363281 186.660156 346.316406 186.929688 346.390625 L 195.292969 348.652344 C 195.796875 348.789062 196.109375 349.289062 196.019531 349.800781 L 190.164062 382.09375 C 189.625 385.046875 187.714844 387.167969 185.695312 387.167969 " fill-opacity="1" fill-rule="nonzero"/><path fill="#ffffff" d="M 186.949219 369.011719 C 188.117188 369.625 190.140625 370.128906 192.769531 369.5625 C 195.527344 368.972656 196.984375 365.292969 196.320312 363.4375 C 195.375 360.785156 191.820312 361.140625 189.589844 361.597656 C 187.785156 361.964844 185.683594 363.296875 185.183594 364.617188 C 184.425781 366.636719 184.765625 367.859375 186.949219 369.011719 " fill-opacity="1" fill-rule="nonzero"/><path fill="#000000" d="M 191.382812 368.757812 C 191.902344 368.757812 192.339844 369.152344 192.382812 369.679688 C 192.386719 369.726562 192.386719 369.773438 192.382812 369.820312 C 195.425781 367.832031 195.839844 365.0625 195.378906 363.777344 C 195.335938 363.660156 195.214844 363.417969 195.214844 363.417969 C 194.421875 361.976562 191.828125 362.160156 189.792969 362.574219 C 188.25 362.890625 186.464844 364.054688 186.121094 364.972656 C 185.550781 366.492188 185.660156 367.199219 187.417969 368.125 C 187.78125 368.316406 189.140625 368.929688 191.304688 368.761719 C 191.332031 368.757812 191.355469 368.757812 191.382812 368.757812 Z M 191.054688 372.703125 C 190.699219 372.703125 190.351562 372.507812 190.171875 372.167969 C 189.910156 371.683594 190.09375 371.074219 190.582031 370.816406 C 190.597656 370.804688 190.613281 370.800781 190.628906 370.792969 C 190.609375 370.792969 190.589844 370.792969 190.566406 370.792969 C 189.039062 370.792969 187.582031 370.476562 186.484375 369.894531 C 183.9375 368.554688 183.269531 366.871094 184.246094 364.265625 C 184.910156 362.503906 187.382812 361.023438 189.390625 360.613281 C 193.3125 359.8125 195.867188 360.445312 196.992188 362.496094 C 197.011719 362.535156 197.203125 362.925781 197.265625 363.101562 C 198.125 365.507812 197.078125 369.179688 193.414062 371.539062 C 193.210938 371.671875 192.503906 372.0625 191.527344 372.585938 C 191.375 372.660156 191.214844 372.703125 191.054688 372.703125 " fill-opacity="1" fill-rule="nonzero"/><path fill="#000000" d="M 109.757812 435.179688 C 109.757812 435.179688 96.484375 440.125 91.28125 435.960938 C 86.074219 431.796875 99.347656 424.769531 102.46875 425.289062 C 105.59375 425.808594 109.757812 435.179688 109.757812 435.179688 " fill-opacity="1" fill-rule="nonzero"/><path fill="#ffffff" d="M 172.691406 521.949219 L 161.519531 539.960938 L 155.464844 532.242188 L 165.242188 514.660156 L 172.691406 521.949219 " fill-opacity="1" fill-rule="nonzero"/><path fill="#000000" d="M 156.664062 532.148438 L 161.421875 538.214844 L 171.417969 522.105469 L 165.480469 516.296875 Z M 161.519531 540.964844 C 161.210938 540.964844 160.921875 540.824219 160.730469 540.582031 L 154.675781 532.863281 C 154.429688 532.542969 154.394531 532.109375 154.589844 531.753906 L 164.367188 514.171875 C 164.519531 513.902344 164.789062 513.714844 165.097656 513.667969 C 165.410156 513.621094 165.71875 513.726562 165.941406 513.945312 L 173.390625 521.234375 C 173.726562 521.5625 173.789062 522.082031 173.542969 522.476562 L 162.371094 540.488281 C 162.195312 540.769531 161.898438 540.941406 161.574219 540.960938 C 161.554688 540.960938 161.535156 540.964844 161.519531 540.964844 " fill-opacity="1" fill-rule="nonzero"/><path fill="#ffffff" d="M 165.386719 537.214844 C 162.441406 542.808594 154.984375 556.378906 147.796875 562.886719 C 146.042969 564.46875 143.082031 563.730469 142.453125 561.546875 C 140.207031 553.710938 138.707031 537.386719 147.085938 524.523438 C 147.085938 524.523438 151.070312 524.09375 158.519531 525.382812 L 156.863281 531.8125 L 157.777344 531.210938 C 159.15625 530.304688 161.023438 530.382812 162.308594 531.394531 L 164.453125 533.089844 C 165.746094 534.109375 166.132812 535.804688 165.386719 537.214844 " fill-opacity="1" fill-rule="nonzero"/><path fill="#000000" d="M 147.65625 525.488281 C 139.796875 537.957031 141.273438 553.804688 143.414062 561.269531 C 143.605469 561.929688 144.132812 562.429688 144.867188 562.636719 C 145.683594 562.867188 146.523438 562.683594 147.125 562.140625 C 153.78125 556.117188 160.871094 543.644531 164.5 536.746094 C 165.023438 535.757812 164.753906 534.601562 163.832031 533.878906 L 161.6875 532.183594 C 160.75 531.441406 159.335938 531.386719 158.328125 532.046875 L 157.414062 532.648438 C 157.070312 532.875 156.617188 532.871094 156.28125 532.628906 C 155.941406 532.386719 155.789062 531.964844 155.894531 531.5625 L 157.277344 526.191406 C 152.089844 525.371094 148.8125 525.425781 147.65625 525.488281 Z M 145.566406 564.738281 C 145.152344 564.738281 144.730469 564.683594 144.316406 564.5625 C 142.925781 564.167969 141.871094 563.144531 141.492188 561.820312 C 139.230469 553.949219 137.691406 537.113281 146.246094 523.976562 C 146.410156 523.722656 146.679688 523.5625 146.980469 523.527344 C 147.148438 523.507812 151.1875 523.097656 158.6875 524.398438 C 158.964844 524.441406 159.207031 524.601562 159.359375 524.835938 C 159.511719 525.074219 159.558594 525.359375 159.488281 525.632812 L 158.414062 529.808594 C 159.933594 529.328125 161.65625 529.605469 162.929688 530.609375 L 165.078125 532.304688 C 166.75 533.625 167.246094 535.839844 166.273438 537.679688 C 162.582031 544.695312 155.355469 557.390625 148.46875 563.625 C 147.664062 564.355469 146.636719 564.738281 145.566406 564.738281 " fill-opacity="1" fill-rule="nonzero"/><path fill="#000000" d="M 146.621094 561.550781 C 146.226562 561.550781 145.851562 561.3125 145.695312 560.925781 C 139.082031 544.832031 147.675781 526.574219 148.046875 525.804688 C 148.285156 525.308594 148.878906 525.097656 149.382812 525.335938 C 149.878906 525.574219 150.089844 526.175781 149.851562 526.671875 C 149.765625 526.851562 141.277344 544.90625 147.546875 560.164062 C 147.757812 560.675781 147.511719 561.261719 147 561.472656 C 146.878906 561.523438 146.75 561.550781 146.621094 561.550781 " fill-opacity="1" fill-rule="nonzero"/><path fill="#000000" d="M 161.050781 546.015625 C 160.875 546.015625 160.699219 545.972656 160.539062 545.875 L 154.953125 542.539062 C 154.476562 542.253906 154.320312 541.640625 154.605469 541.164062 C 154.890625 540.6875 155.507812 540.535156 155.980469 540.816406 L 161.566406 544.15625 C 162.039062 544.4375 162.195312 545.050781 161.914062 545.53125 C 161.722656 545.84375 161.390625 546.015625 161.050781 546.015625 " fill-opacity="1" fill-rule="nonzero"/><path fill="#000000" d="M 158.257812 550.589844 C 158.058594 550.589844 157.859375 550.527344 157.679688 550.40625 L 152.558594 546.78125 C 152.109375 546.464844 152 545.839844 152.320312 545.390625 C 152.640625 544.933594 153.265625 544.828125 153.714844 545.148438 L 158.835938 548.769531 C 159.289062 549.089844 159.394531 549.710938 159.078125 550.164062 C 158.882812 550.441406 158.570312 550.589844 158.257812 550.589844 " fill-opacity="1" fill-rule="nonzero"/><path fill="#ffffff" d="M 208.074219 522.378906 C 208.074219 522.808594 218.316406 543.394531 218.316406 543.394531 L 206.675781 544.25 L 198.761719 526.667969 L 208.074219 522.378906 " fill-opacity="1" fill-rule="nonzero"/><path fill="#000000" d="M 209.074219 522.378906 L 209.082031 522.378906 Z M 200.085938 527.164062 L 207.304688 543.199219 L 216.753906 542.503906 C 210.675781 530.277344 208.414062 525.585938 207.570312 523.710938 Z M 206.675781 545.25 C 206.285156 545.25 205.925781 545.023438 205.765625 544.664062 L 197.847656 527.078125 C 197.621094 526.578125 197.84375 525.988281 198.34375 525.757812 L 207.652344 521.46875 C 207.964844 521.328125 208.324219 521.351562 208.613281 521.535156 C 208.832031 521.675781 208.984375 521.894531 209.046875 522.144531 C 209.460938 523.25 215.332031 535.144531 219.214844 542.945312 C 219.363281 543.246094 219.351562 543.597656 219.1875 543.890625 C 219.023438 544.179688 218.722656 544.367188 218.390625 544.390625 L 206.75 545.25 C 206.726562 545.25 206.703125 545.25 206.675781 545.25 " fill-opacity="1" fill-rule="nonzero"/><path fill="#ffffff" d="M 207.609375 539.105469 C 207.609375 539.105469 209.9375 533.960938 215.988281 536.53125 C 215.988281 536.53125 227.097656 551.3125 231.226562 563.515625 C 232.394531 566.96875 228.546875 570.082031 224.96875 568.59375 C 216.597656 565.109375 203.476562 557.804688 195.96875 544.25 C 195.96875 544.25 198.296875 538.675781 202.019531 536.101562 L 207.609375 539.105469 " fill-opacity="1" fill-rule="nonzero"/><path fill="#000000" d="M 197.089844 544.199219 C 204.289062 556.863281 216.40625 563.945312 225.355469 567.667969 C 226.753906 568.25 228.359375 567.972656 229.441406 566.960938 C 230.355469 566.109375 230.660156 564.96875 230.277344 563.839844 C 226.515625 552.722656 216.734375 539.230469 215.351562 537.351562 C 210.4375 535.417969 208.597656 539.347656 208.519531 539.515625 C 208.40625 539.769531 208.191406 539.964844 207.929688 540.050781 C 207.664062 540.140625 207.378906 540.117188 207.132812 539.984375 L 202.105469 537.285156 C 199.507812 539.347656 197.671875 542.953125 197.089844 544.199219 Z M 226.855469 569.972656 C 226.089844 569.972656 225.320312 569.824219 224.585938 569.519531 C 215.238281 565.632812 202.539062 558.175781 195.09375 544.734375 C 194.945312 544.464844 194.925781 544.144531 195.042969 543.863281 C 195.144531 543.625 197.53125 537.988281 201.453125 535.277344 C 201.761719 535.0625 202.164062 535.042969 202.496094 535.21875 L 207.226562 537.761719 C 208.589844 535.78125 211.648438 533.597656 216.378906 535.609375 C 216.542969 535.679688 216.683594 535.789062 216.789062 535.929688 C 217.246094 536.539062 228.042969 550.980469 232.175781 563.195312 C 232.8125 565.078125 232.300781 567.03125 230.808594 568.429688 C 229.722656 569.4375 228.304688 569.972656 226.855469 569.972656 " fill-opacity="1" fill-rule="nonzero"/><path fill="#000000" d="M 227.839844 565.871094 C 224.652344 565.871094 213.03125 564.414062 197.976562 545.296875 C 197.632812 544.867188 197.707031 544.234375 198.144531 543.890625 C 198.578125 543.550781 199.207031 543.625 199.550781 544.058594 C 216.230469 565.238281 228.304688 563.859375 228.421875 563.839844 C 228.972656 563.765625 229.476562 564.152344 229.550781 564.699219 C 229.625 565.246094 229.242188 565.75 228.695312 565.828125 C 228.621094 565.835938 228.332031 565.871094 227.839844 565.871094 " fill-opacity="1" fill-rule="nonzero"/><path fill="#000000" d="M 218.316406 554.257812 C 217.960938 554.257812 217.613281 554.066406 217.433594 553.730469 C 217.171875 553.242188 217.355469 552.636719 217.839844 552.371094 L 223.429688 549.371094 C 223.914062 549.109375 224.523438 549.292969 224.785156 549.777344 C 225.046875 550.269531 224.863281 550.871094 224.375 551.136719 L 218.789062 554.136719 C 218.640625 554.21875 218.476562 554.257812 218.316406 554.257812 " fill-opacity="1" fill-rule="nonzero"/><path fill="#000000" d="M 215.523438 550.398438 C 215.15625 550.398438 214.800781 550.191406 214.625 549.839844 C 214.378906 549.347656 214.582031 548.746094 215.078125 548.5 L 221.128906 545.496094 C 221.625 545.25 222.226562 545.453125 222.472656 545.949219 C 222.71875 546.445312 222.515625 547.042969 222.019531 547.292969 L 215.96875 550.292969 C 215.824219 550.363281 215.671875 550.398438 215.523438 550.398438 " fill-opacity="1" fill-rule="nonzero"/><path fill="#000000" d="M 151.101562 413.933594 C 151.101562 413.933594 178.828125 423.59375 200.695312 444.714844 C 206.214844 450.042969 208.164062 457.71875 205.796875 464.753906 C 200.9375 479.1875 190.363281 505.554688 172.691406 525.382812 L 159.191406 514.660156 C 159.191406 514.660156 162.449219 489.789062 171.292969 474.351562 C 180.140625 458.910156 128.464844 425.464844 128.464844 425.464844 L 151.101562 413.933594 " fill-opacity="1" fill-rule="nonzero"/><path fill="#000000" d="M 211.796875 526.238281 L 195.96875 530.527344 C 195.96875 530.527344 167.105469 474.351562 158.722656 466.203125 C 150.34375 458.054688 134.050781 444.761719 116.824219 440.042969 C 99.597656 435.324219 99.597656 423.320312 99.597656 423.320312 L 128.929688 415.601562 C 128.929688 415.601562 169.898438 431.894531 183.398438 450.332031 C 196.898438 468.773438 211.796875 526.238281 211.796875 526.238281 " fill-opacity="1" fill-rule="nonzero"/><path fill="#ffffff" d="M 211.640625 526.640625 C 211.195312 526.640625 210.789062 526.34375 210.671875 525.894531 C 209.125 520.03125 195.183594 468.125 182.589844 450.925781 C 177.160156 443.507812 166.105469 435.210938 150.628906 426.933594 C 150.140625 426.675781 149.957031 426.066406 150.21875 425.582031 C 150.480469 425.089844 151.085938 424.910156 151.574219 425.167969 C 167.539062 433.707031 178.519531 441.972656 184.207031 449.746094 C 197.015625 467.238281 211.050781 519.484375 212.609375 525.382812 C 212.75 525.917969 212.429688 526.464844 211.894531 526.605469 C 211.8125 526.628906 211.726562 526.640625 211.640625 526.640625 " fill-opacity="1" fill-rule="nonzero"/><path fill="#ffffff" d="M 195.96875 531.527344 C 195.605469 531.527344 195.257812 531.332031 195.078125 530.984375 C 194.789062 530.425781 166.195312 474.859375 158.027344 466.921875 C 153.136719 462.167969 135.699219 446.25 116.558594 441.007812 C 98.800781 436.144531 98.597656 423.839844 98.597656 423.320312 C 98.597656 422.863281 98.90625 422.464844 99.34375 422.351562 L 128.675781 414.632812 C 128.878906 414.578125 129.101562 414.589844 129.300781 414.667969 C 129.402344 414.710938 139.730469 418.839844 151.574219 425.167969 C 152.0625 425.429688 152.246094 426.035156 151.984375 426.523438 C 151.722656 427.015625 151.113281 427.199219 150.628906 426.933594 C 140.019531 421.261719 130.644531 417.378906 128.863281 416.65625 L 100.660156 424.074219 C 100.992188 426.6875 103.140625 435.257812 117.089844 439.078125 C 136.691406 444.445312 154.449219 460.648438 159.421875 465.484375 C 167.824219 473.652344 195.679688 527.769531 196.859375 530.070312 C 197.113281 530.558594 196.917969 531.164062 196.425781 531.417969 C 196.28125 531.496094 196.125 531.527344 195.96875 531.527344 " fill-opacity="1" fill-rule="nonzero"/><path fill="#05347e" d="M 81.191406 364.988281 C 90.953125 348.0625 114.058594 346.761719 114.058594 346.761719 L 130.082031 349.332031 C 137.878906 350.070312 145.53125 362.109375 147.417969 369.707031 C 142.984375 389.691406 142.222656 399.710938 160.109375 416.246094 C 160.109375 416.246094 154.59375 431.910156 133.710938 430.617188 C 112.824219 429.324219 98.90625 425.738281 90.890625 432.867188 C 85.601562 437.570312 91.632812 401.449219 98.824219 373.277344 L 81.191406 364.988281 " fill-opacity="1" fill-rule="nonzero"/><path fill="#ffffff" d="M 149.378906 410.757812 L 137.429688 406.824219 L 129.027344 411.410156 C 129.027344 411.410156 81.183594 410.578125 98.601562 374.511719 C 98.679688 374.355469 81.636719 372.800781 81.636719 372.800781 C 81.636719 372.800781 67.40625 420.75 128.386719 415.144531 C 128.386719 415.144531 131.605469 415.839844 135.519531 413.320312 C 139.433594 410.796875 147.128906 414.144531 149.378906 410.757812 " fill-opacity="1" fill-rule="nonzero"/><path fill="#000000" d="M 82.394531 373.878906 C 81.527344 377.484375 78.59375 392.644531 87.339844 403.296875 C 94.742188 412.3125 108.527344 415.960938 128.296875 414.144531 C 128.398438 414.136719 128.5 414.140625 128.601562 414.164062 C 128.710938 414.1875 131.5 414.71875 134.976562 412.476562 C 137.074219 411.128906 139.871094 411.238281 142.582031 411.34375 C 144.339844 411.410156 146.035156 411.480469 147.222656 411.101562 L 137.527344 407.914062 L 129.507812 412.289062 C 129.355469 412.371094 129.183594 412.40625 129.011719 412.410156 C 128.019531 412.394531 104.59375 411.835938 96.472656 398.640625 C 92.683594 392.488281 92.90625 384.640625 97.125 375.308594 C 94.316406 374.992188 87.367188 374.335938 82.394531 373.878906 Z M 118.949219 416.601562 C 103.484375 416.601562 92.351562 412.566406 85.78125 404.554688 C 75.171875 391.621094 80.445312 373.292969 80.675781 372.519531 C 80.8125 372.0625 81.257812 371.757812 81.726562 371.808594 C 99.121094 373.390625 99.121094 373.390625 99.476562 374.015625 C 99.636719 374.300781 99.648438 374.648438 99.507812 374.945312 C 95.050781 384.171875 94.605469 391.785156 98.175781 397.59375 C 105.296875 409.160156 126.214844 410.304688 128.789062 410.398438 L 136.949219 405.949219 C 137.191406 405.816406 137.480469 405.789062 137.742188 405.875 L 149.691406 409.808594 C 149.988281 409.90625 150.222656 410.136719 150.324219 410.433594 C 150.425781 410.726562 150.386719 411.050781 150.214844 411.3125 C 148.703125 413.585938 145.550781 413.464844 142.503906 413.34375 C 140.105469 413.25 137.625 413.152344 136.0625 414.160156 C 132.316406 416.574219 129.117188 416.273438 128.347656 416.152344 C 125.054688 416.453125 121.921875 416.601562 118.949219 416.601562 " fill-opacity="1" fill-rule="nonzero"/><path fill="#05347e" d="M 101.21875 377.53125 L 77.394531 373.523438 C 76.488281 373.039062 83.695312 359.164062 85.421875 360.105469 C 85.863281 360.347656 94.488281 367.078125 94.488281 367.078125 L 102.800781 368.714844 L 101.21875 377.53125 " fill-opacity="1" fill-rule="nonzero"/><path fill="#ffffff" d="M 204.324219 308.609375 L 170.144531 316.363281 L 155.441406 322.707031 L 148.4375 328.136719 L 148.386719 328.183594 C 147.082031 329.085938 146.34375 332.113281 146.628906 335.628906 C 146.910156 339.105469 148.144531 341.945312 149.558594 342.671875 L 149.507812 342.679688 L 156.894531 346.75 L 172.332031 350.5 L 207.648438 352.378906 L 243.078125 374.917969 L 243.347656 375.039062 C 234.464844 369.253906 226.890625 351.011719 225.09375 328.929688 C 223.296875 306.875 227.808594 287.714844 235.625 280.609375 L 235.617188 280.601562 L 204.71875 308.253906 L 204.324219 308.609375 " fill-opacity="1" fill-rule="nonzero"/><path fill="#05347e" d="M 266.519531 325.707031 C 268.738281 353.007812 261.261719 375.863281 249.808594 376.757812 C 238.355469 377.644531 227.269531 356.230469 225.046875 328.929688 C 222.820312 301.625 230.300781 278.769531 241.753906 277.882812 C 253.207031 276.992188 264.296875 298.40625 266.519531 325.707031 " fill-opacity="1" fill-rule="nonzero"/><path fill="#000000" d="M 242.421875 278.855469 C 242.222656 278.855469 242.027344 278.863281 241.832031 278.878906 C 239.332031 279.074219 236.96875 280.453125 234.816406 282.980469 C 227.878906 291.113281 224.4375 309.121094 226.042969 328.847656 C 227.109375 341.921875 230.238281 354.035156 234.855469 362.953125 C 239.269531 371.480469 244.699219 376.152344 249.730469 375.753906 C 252.230469 375.5625 254.59375 374.183594 256.746094 371.65625 C 263.683594 363.523438 267.125 345.515625 265.519531 325.789062 C 264.457031 312.710938 261.328125 300.597656 256.707031 291.683594 C 252.464844 283.488281 247.292969 278.855469 242.421875 278.855469 Z M 249.109375 377.785156 C 237.21875 377.785156 226.300781 356.6875 224.046875 329.007812 C 222.398438 308.777344 226.027344 290.199219 233.292969 281.683594 C 235.804688 278.734375 238.625 277.117188 241.675781 276.882812 C 253.859375 275.929688 265.210938 297.347656 267.515625 325.625 C 269.164062 345.859375 265.535156 364.4375 258.273438 372.957031 C 255.761719 375.902344 252.941406 377.515625 249.886719 377.753906 C 249.625 377.773438 249.367188 377.785156 249.109375 377.785156 " fill-opacity="1" fill-rule="nonzero"/><path fill="#ffbd59" d="M 244.527344 327.449219 C 245.015625 333.425781 243.375 338.429688 240.871094 338.625 C 238.367188 338.816406 235.941406 334.128906 235.453125 328.152344 C 234.96875 322.179688 236.601562 317.175781 239.109375 316.980469 C 241.613281 316.785156 244.042969 321.472656 244.527344 327.449219 " fill-opacity="1" fill-rule="nonzero"/><path fill="#000000" d="M 239.253906 317.976562 C 239.234375 317.976562 239.210938 317.976562 239.183594 317.976562 C 238.851562 318.003906 238.515625 318.214844 238.1875 318.601562 C 237.046875 319.9375 236.066406 323.386719 236.453125 328.070312 C 236.949219 334.160156 239.335938 337.757812 240.792969 337.625 C 241.125 337.597656 241.460938 337.390625 241.796875 337 C 242.929688 335.664062 243.910156 332.21875 243.53125 327.53125 C 243.039062 321.535156 240.738281 317.976562 239.253906 317.976562 Z M 240.726562 339.628906 C 237.660156 339.628906 234.992188 334.8125 234.453125 328.234375 C 234.074219 323.539062 234.917969 319.347656 236.664062 317.304688 C 237.339844 316.507812 238.160156 316.050781 239.03125 315.980469 C 242.183594 315.730469 244.976562 320.628906 245.527344 327.367188 C 245.90625 332.066406 245.0625 336.257812 243.320312 338.300781 C 242.636719 339.097656 241.820312 339.554688 240.949219 339.621094 C 240.871094 339.628906 240.796875 339.628906 240.726562 339.628906 " fill-opacity="1" fill-rule="nonzero"/><path fill="#000000" d="M 172.476562 349.503906 L 207.699219 351.378906 C 207.875 351.386719 208.039062 351.441406 208.183594 351.539062 L 236.515625 369.558594 C 230.171875 360.703125 225.460938 345.757812 224.09375 329.011719 C 222.738281 312.375 224.941406 296.964844 229.710938 287.234375 L 204.992188 309.355469 C 204.867188 309.46875 204.710938 309.550781 204.546875 309.585938 L 170.457031 317.320312 L 155.953125 323.574219 L 149.054688 328.929688 C 149.023438 328.957031 148.988281 328.984375 148.953125 329.007812 C 148.089844 329.605469 147.355469 332.214844 147.625 335.546875 C 147.894531 338.816406 149.050781 341.285156 150.015625 341.78125 C 150.101562 341.824219 150.175781 341.878906 150.242188 341.9375 L 157.261719 345.808594 Z M 243.34375 376.039062 C 243.207031 376.039062 243.066406 376.011719 242.929688 375.953125 L 242.664062 375.832031 C 242.621094 375.808594 242.582031 375.789062 242.542969 375.765625 L 207.332031 353.371094 L 172.277344 351.5 C 172.21875 351.496094 172.15625 351.488281 172.09375 351.472656 L 156.65625 347.726562 C 156.570312 347.703125 156.488281 347.671875 156.410156 347.628906 L 149.023438 343.554688 C 148.9375 343.507812 148.863281 343.449219 148.796875 343.382812 C 147.152344 342.285156 145.925781 339.335938 145.628906 335.707031 C 145.3125 331.820312 146.148438 328.574219 147.761719 327.398438 L 147.769531 327.394531 C 147.785156 327.375 147.804688 327.359375 147.824219 327.347656 L 154.824219 321.914062 C 154.894531 321.863281 154.964844 321.820312 155.042969 321.785156 L 169.75 315.445312 C 169.804688 315.421875 169.863281 315.402344 169.921875 315.386719 L 203.847656 307.691406 L 234.949219 279.855469 C 235.351562 279.496094 235.972656 279.519531 236.34375 279.910156 C 236.53125 280.105469 236.632812 280.371094 236.621094 280.640625 C 236.613281 280.910156 236.496094 281.167969 236.296875 281.347656 C 228.460938 288.476562 224.359375 307.5625 226.089844 328.847656 C 227.800781 349.835938 235.121094 368.484375 243.894531 374.199219 C 244.328125 374.484375 244.472656 375.0625 244.222656 375.519531 C 244.042969 375.851562 243.699219 376.039062 243.34375 376.039062 " fill-opacity="1" fill-rule="nonzero"/><path fill="#ffbd59" d="M 204.417969 308.527344 L 235.617188 280.601562 L 235.625 280.609375 C 227.808594 287.714844 223.296875 306.875 225.09375 328.929688 C 226.890625 351.011719 234.464844 369.253906 243.347656 375.039062 L 243.078125 374.917969 L 207.707031 352.417969 L 206.886719 351.898438 C 202.78125 349.265625 199.28125 341.015625 198.488281 331.027344 C 197.675781 320.777344 200.433594 312.050781 204.03125 308.863281 L 204.417969 308.527344 " fill-opacity="1" fill-rule="nonzero"/><path fill="#000000" d="M 204.417969 308.527344 L 204.425781 308.527344 Z M 229.710938 287.234375 L 205.085938 309.273438 C 205.082031 309.277344 205.078125 309.28125 205.074219 309.285156 L 204.6875 309.617188 C 201.492188 312.453125 198.675781 320.691406 199.488281 330.949219 C 200.226562 340.257812 203.488281 348.527344 207.425781 351.058594 L 208.242188 351.574219 L 236.515625 369.558594 C 230.171875 360.703125 225.460938 345.757812 224.09375 329.011719 C 222.738281 312.375 224.941406 296.964844 229.710938 287.234375 Z M 243.34375 376.039062 C 243.207031 376.039062 243.066406 376.011719 242.929688 375.953125 L 242.664062 375.832031 C 242.621094 375.808594 242.582031 375.789062 242.542969 375.765625 L 206.351562 352.75 C 201.84375 349.851562 198.285156 341.15625 197.492188 331.109375 C 196.714844 321.324219 199.132812 311.867188 203.367188 308.113281 L 203.753906 307.773438 L 234.949219 279.855469 C 235.351562 279.496094 235.972656 279.519531 236.34375 279.910156 C 236.53125 280.105469 236.632812 280.371094 236.621094 280.640625 C 236.613281 280.910156 236.496094 281.167969 236.296875 281.347656 C 228.460938 288.476562 224.359375 307.5625 226.089844 328.847656 C 227.800781 349.835938 235.121094 368.484375 243.894531 374.199219 C 244.328125 374.484375 244.472656 375.0625 244.222656 375.519531 C 244.042969 375.851562 243.699219 376.039062 243.34375 376.039062 " fill-opacity="1" fill-rule="nonzero"/><path fill="#000000" d="M 156.496094 347.535156 C 156.332031 347.535156 156.164062 347.492188 156.011719 347.40625 L 149.023438 343.554688 C 148.9375 343.507812 148.863281 343.449219 148.796875 343.382812 C 147.152344 342.285156 145.925781 339.335938 145.628906 335.707031 C 145.3125 331.820312 146.148438 328.574219 147.761719 327.398438 L 147.769531 327.394531 C 147.785156 327.375 147.804688 327.359375 147.824219 327.347656 L 154.824219 321.914062 C 155.265625 321.578125 155.890625 321.65625 156.230469 322.09375 C 156.570312 322.527344 156.492188 323.160156 156.054688 323.496094 L 149.054688 328.929688 C 149.023438 328.957031 148.988281 328.984375 148.953125 329.007812 C 148.089844 329.605469 147.355469 332.214844 147.625 335.546875 C 147.894531 338.816406 149.050781 341.285156 150.015625 341.78125 C 150.101562 341.824219 150.175781 341.878906 150.242188 341.9375 L 156.980469 345.652344 C 157.464844 345.917969 157.640625 346.53125 157.371094 347.015625 C 157.191406 347.347656 156.847656 347.535156 156.496094 347.535156 " fill-opacity="1" fill-rule="nonzero"/><path fill="#05347e" d="M 156.980469 346.734375 C 154.667969 345.566406 152.757812 340.804688 152.296875 335.140625 C 151.808594 329.136719 153.347656 323.777344 155.671875 322.617188 L 148.4375 328.136719 L 148.386719 328.183594 C 147.082031 329.085938 146.34375 332.113281 146.628906 335.628906 C 146.910156 339.105469 148.144531 341.945312 149.558594 342.671875 L 149.507812 342.679688 L 156.980469 346.734375 " fill-opacity="1" fill-rule="nonzero"/><path fill="#000000" d="M 150.234375 341.933594 L 153.273438 343.582031 C 152.273438 341.355469 151.5625 338.445312 151.300781 335.21875 C 151.042969 332.058594 151.3125 329.070312 151.988281 326.691406 L 149.054688 328.929688 C 149.023438 328.957031 148.988281 328.984375 148.953125 329.007812 C 148.089844 329.605469 147.355469 332.214844 147.625 335.546875 C 147.894531 338.816406 149.050781 341.285156 150.015625 341.78125 C 150.097656 341.820312 150.171875 341.875 150.234375 341.933594 Z M 156.976562 347.738281 C 156.828125 347.738281 156.671875 347.703125 156.527344 347.628906 C 156.464844 347.597656 156.402344 347.5625 156.339844 347.527344 L 149.027344 343.558594 C 148.941406 343.507812 148.863281 343.453125 148.796875 343.382812 C 147.152344 342.285156 145.925781 339.335938 145.628906 335.707031 C 145.3125 331.820312 146.148438 328.574219 147.761719 327.398438 L 147.769531 327.394531 C 147.789062 327.375 147.808594 327.355469 147.832031 327.34375 L 154.148438 322.515625 C 154.484375 322.179688 154.84375 321.910156 155.222656 321.722656 C 155.6875 321.488281 156.246094 321.648438 156.519531 322.085938 C 156.792969 322.527344 156.6875 323.101562 156.28125 323.414062 L 155.460938 324.035156 C 154.007812 325.640625 152.882812 329.980469 153.296875 335.058594 C 153.769531 340.867188 155.648438 344.792969 157.308594 345.773438 L 157.457031 345.855469 C 157.9375 346.117188 158.121094 346.71875 157.867188 347.203125 C 157.6875 347.542969 157.339844 347.738281 156.976562 347.738281 " fill-opacity="1" fill-rule="nonzero"/><path fill="#ffbd59" d="M 171.769531 350.363281 L 172.433594 350.496094 C 168.8125 349.796875 165.664062 342.570312 164.953125 333.863281 C 164.230469 324.980469 166.5625 317.394531 170.144531 316.363281 L 169.652344 316.574219 L 155.710938 322.597656 C 153.363281 323.71875 151.804688 329.097656 152.296875 335.140625 C 152.773438 340.96875 154.851562 345.839844 157.242188 346.824219 L 171.769531 350.363281 " fill-opacity="1" fill-rule="nonzero"/><path fill="#000000" d="M 157.5625 345.875 L 168.285156 348.488281 C 166.082031 345.378906 164.460938 340.152344 163.957031 333.945312 C 163.472656 328.035156 164.304688 322.6875 166.015625 319.234375 L 156.109375 323.519531 C 154.382812 324.339844 152.816406 329.1875 153.296875 335.058594 C 153.765625 340.855469 155.820312 345.074219 157.5625 345.875 Z M 172.433594 351.5 C 172.371094 351.5 172.304688 351.496094 172.242188 351.480469 C 172.222656 351.476562 172.203125 351.472656 172.183594 351.46875 L 171.570312 351.347656 C 171.558594 351.34375 171.542969 351.339844 171.53125 351.335938 L 157.007812 347.800781 C 156.957031 347.789062 156.90625 347.773438 156.859375 347.753906 C 154.050781 346.589844 151.8125 341.554688 151.300781 335.21875 C 150.769531 328.738281 152.445312 323.046875 155.28125 321.695312 L 168.953125 315.789062 C 169.246094 315.621094 169.554688 315.488281 169.867188 315.402344 C 170.375 315.253906 170.910156 315.53125 171.085938 316.027344 C 171.265625 316.523438 171.027344 317.074219 170.542969 317.285156 L 169.832031 317.59375 C 167.339844 319.105469 165.28125 325.550781 165.953125 333.78125 C 166.695312 342.921875 169.902344 348.9375 172.585938 349.503906 L 172.628906 349.519531 C 173.171875 349.625 173.519531 350.148438 173.414062 350.691406 C 173.320312 351.167969 172.902344 351.496094 172.433594 351.5 " fill-opacity="1" fill-rule="nonzero"/><path fill="#000000" d="M 239.109375 316.980469 C 236.601562 317.175781 234.859375 322.1875 235.453125 328.152344 C 236.449219 338.160156 240.359375 338.667969 240.835938 338.691406 C 240.84375 338.691406 240.84375 338.703125 240.835938 338.703125 L 230.703125 341.628906 C 229.792969 337.574219 229.121094 333.210938 228.746094 328.644531 C 228.394531 324.273438 228.335938 320.035156 228.546875 316.042969 L 239.109375 316.980469 " fill-opacity="1" fill-rule="nonzero"/><path fill="#000000" d="M 229.5 317.132812 C 229.351562 320.851562 229.429688 324.691406 229.75 328.5625 C 230.078125 332.617188 230.652344 336.582031 231.453125 340.367188 L 238.167969 338.429688 C 236.6875 337.058594 235.046875 334.199219 234.457031 328.253906 C 234.03125 323.984375 234.753906 319.933594 236.308594 317.738281 Z M 229.960938 342.886719 L 229.726562 341.847656 C 228.785156 337.660156 228.121094 333.246094 227.75 328.726562 C 227.398438 324.402344 227.332031 320.121094 227.546875 315.988281 L 227.605469 314.953125 L 239.199219 315.984375 L 239.183594 317.976562 C 238.835938 318.003906 238.480469 318.230469 238.128906 318.652344 C 236.964844 320.039062 235.996094 323.492188 236.449219 328.054688 C 237.378906 337.398438 240.851562 337.6875 240.886719 337.6875 L 241.726562 337.730469 L 241.941406 339.417969 L 241.117188 339.667969 L 229.960938 342.886719 " fill-opacity="1" fill-rule="nonzero"/><path fill="#ffffff" d="M 118.894531 320.957031 C 119.34375 321.175781 119.875 320.953125 120.027344 320.476562 C 120.746094 318.207031 123.152344 314.621094 126.027344 313.710938 C 129.714844 312.550781 134.121094 313.378906 135.289062 316.183594 C 136.3125 318.628906 135.632812 320.203125 138.628906 323.242188 C 138.914062 323.53125 138.726562 324.050781 138.421875 324.320312 L 136.8125 325.914062 C 136.46875 326.21875 136.234375 327.171875 136.226562 327.628906 C 136.199219 329.054688 136.257812 332.070312 135.800781 332.496094 C 134.90625 333.328125 130.136719 333.40625 130.136719 333.40625 L 127.359375 346.804688 C 127.253906 347.3125 127.589844 347.808594 128.097656 347.898438 L 133.097656 350.878906 C 133.097656 350.878906 129.515625 354.464844 118.085938 354.59375 C 110.78125 354.675781 105.476562 349.378906 105.476562 349.378906 C 105.476562 349.378906 119.027344 346.851562 119.617188 330 C 119.632812 329.632812 119.445312 329.28125 119.132812 329.085938 C 117.9375 328.324219 114.707031 326.070312 115.039062 323.496094 C 115.390625 320.765625 117.367188 320.203125 118.894531 320.957031 " fill-opacity="1" fill-rule="nonzero"/><path fill="#000000" d="M 119.339844 320.054688 Z M 107.53125 349.800781 C 109.457031 351.253906 113.277344 353.59375 117.921875 353.59375 C 117.972656 353.59375 118.023438 353.59375 118.074219 353.59375 C 125.492188 353.507812 129.476562 351.921875 131.246094 350.941406 L 127.714844 348.832031 C 127.292969 348.710938 126.925781 348.445312 126.671875 348.074219 C 126.378906 347.644531 126.273438 347.109375 126.378906 346.597656 L 129.15625 333.203125 C 129.25 332.746094 129.652344 332.414062 130.121094 332.40625 C 132.21875 332.371094 134.410156 332.097656 135.03125 331.808594 C 135.191406 331.175781 135.207031 329.238281 135.214844 328.378906 C 135.21875 328.09375 135.21875 327.832031 135.222656 327.609375 C 135.234375 327.09375 135.480469 325.757812 136.148438 325.164062 L 137.652344 323.675781 C 135.621094 321.519531 135.269531 319.984375 134.933594 318.5 C 134.785156 317.855469 134.648438 317.246094 134.367188 316.566406 C 133.480469 314.445312 129.800781 313.574219 126.328125 314.667969 C 123.859375 315.445312 121.636719 318.714844 120.980469 320.777344 C 120.820312 321.28125 120.449219 321.691406 119.964844 321.898438 C 119.480469 322.105469 118.929688 322.085938 118.453125 321.855469 C 117.941406 321.601562 117.410156 321.582031 116.992188 321.804688 C 116.484375 322.078125 116.148438 322.707031 116.03125 323.625 C 115.777344 325.601562 118.753906 327.652344 119.667969 328.238281 C 120.28125 328.625 120.644531 329.3125 120.621094 330.039062 C 120.144531 343.613281 111.441406 348.351562 107.53125 349.800781 Z M 117.917969 355.59375 C 110.371094 355.597656 104.992188 350.316406 104.765625 350.089844 C 104.503906 349.824219 104.40625 349.4375 104.519531 349.082031 C 104.628906 348.730469 104.925781 348.460938 105.289062 348.394531 C 105.8125 348.296875 118.0625 345.773438 118.617188 329.96875 C 116.734375 328.746094 113.664062 326.320312 114.046875 323.371094 C 114.246094 321.804688 114.957031 320.625 116.046875 320.039062 C 116.976562 319.539062 118.09375 319.515625 119.140625 319.964844 C 119.996094 317.503906 122.523438 313.765625 125.726562 312.757812 C 129.644531 311.523438 134.769531 312.335938 136.214844 315.796875 C 136.566406 316.632812 136.726562 317.355469 136.886719 318.054688 C 137.203125 319.445312 137.472656 320.648438 139.339844 322.539062 C 139.632812 322.835938 139.785156 323.234375 139.769531 323.667969 C 139.753906 324.179688 139.5 324.707031 139.089844 325.070312 L 137.519531 326.625 C 137.394531 326.78125 137.230469 327.363281 137.226562 327.648438 C 137.222656 327.867188 137.21875 328.117188 137.21875 328.394531 C 137.195312 331.53125 137.085938 332.667969 136.484375 333.230469 C 135.59375 334.058594 132.90625 334.316406 130.957031 334.386719 L 128.359375 346.929688 C 128.445312 346.953125 128.53125 346.992188 128.609375 347.035156 L 133.609375 350.019531 C 133.878906 350.179688 134.054688 350.453125 134.09375 350.757812 C 134.128906 351.0625 134.023438 351.371094 133.808594 351.589844 C 133.648438 351.746094 129.800781 355.464844 118.097656 355.59375 C 118.035156 355.59375 117.976562 355.59375 117.917969 355.59375 " fill-opacity="1" fill-rule="nonzero"/><path fill="#05347e" d="M 334.496094 60.730469 C 334.394531 60.824219 334.335938 60.96875 334.371094 61.148438 C 334.40625 61.351562 334.566406 61.542969 334.757812 61.621094 C 334.933594 61.691406 335.097656 61.652344 335.207031 61.550781 L 337.5 59.472656 C 344.457031 55.777344 353.003906 54.550781 362.167969 56.535156 C 383.433594 61.144531 400.640625 82.75 402.445312 104.5625 L 385.578125 102.640625 C 384.785156 102.636719 383.613281 103.300781 383.164062 103.65625 C 382.652344 104.070312 381.597656 105.351562 381.597656 105.351562 L 413.554688 141.011719 C 414.269531 141.832031 415.394531 141.957031 415.992188 141.285156 L 442.09375 109.207031 C 442.980469 108.207031 442.089844 106.332031 440.640625 106.171875 L 425.214844 104.449219 C 420.53125 78.390625 399.363281 57.652344 373.453125 52.039062 C 361.121094 49.367188 349.679688 51.144531 340.464844 56.308594 C 338.449219 57.4375 336.59375 58.808594 334.894531 60.371094 L 334.496094 60.730469 " fill-opacity="1" fill-rule="nonzero"/><path fill="#000000" d="M 383.679688 106.015625 C 383.507812 106.015625 383.441406 106.09375 383.402344 106.171875 C 383.292969 106.382812 383.320312 106.769531 383.636719 107.128906 L 413.511719 141.234375 C 413.746094 141.496094 414.023438 141.59375 414.199219 141.597656 C 414.367188 141.597656 414.433594 141.523438 414.449219 141.5 L 439.234375 110.886719 C 439.445312 110.644531 439.339844 110.304688 439.300781 110.203125 C 439.175781 109.871094 438.863281 109.523438 438.453125 109.476562 L 423.027344 107.75 C 422.589844 107.699219 422.230469 107.371094 422.152344 106.933594 C 417.613281 81.6875 397.121094 60.949219 371.164062 55.324219 C 360.300781 52.972656 349.773438 54.085938 340.875 58.441406 C 346.886719 56.597656 353.496094 56.390625 360.300781 57.863281 C 381.4375 62.441406 399.476562 83.933594 401.363281 106.785156 C 401.390625 107.085938 401.277344 107.378906 401.0625 107.585938 C 400.847656 107.796875 400.550781 107.898438 400.257812 107.863281 L 383.757812 106.019531 C 383.730469 106.019531 383.707031 106.015625 383.679688 106.015625 Z M 414.199219 143.597656 C 414.199219 143.597656 414.195312 143.597656 414.191406 143.597656 C 413.382812 143.597656 412.585938 143.214844 412.007812 142.554688 L 382.128906 108.445312 C 381.300781 107.503906 381.101562 106.246094 381.628906 105.242188 C 382.074219 104.386719 382.976562 103.921875 383.980469 104.03125 L 399.25 105.734375 C 396.90625 84.171875 379.828125 64.144531 359.878906 59.820312 C 351.21875 57.945312 342.929688 58.929688 335.894531 62.664062 C 335.867188 62.675781 335.847656 62.6875 335.824219 62.699219 C 335.527344 62.863281 335.171875 62.914062 334.828125 62.839844 C 334.09375 62.679688 333.546875 61.992188 333.558594 61.238281 C 333.566406 60.835938 333.742188 60.453125 334.035156 60.195312 C 334.0625 60.171875 334.09375 60.152344 334.121094 60.128906 C 344.484375 52.78125 357.789062 50.375 371.585938 53.367188 C 398.074219 59.105469 419.042969 80.144531 423.988281 105.839844 L 438.675781 107.484375 C 439.773438 107.605469 440.753906 108.394531 441.171875 109.488281 C 441.542969 110.464844 441.394531 111.472656 440.765625 112.183594 L 415.976562 142.796875 C 415.503906 143.328125 414.890625 143.597656 414.199219 143.597656 " fill-opacity="1" fill-rule="nonzero"/><path fill="#05347e" d="M 487.742188 187.667969 C 490.132812 187.667969 492.070312 191.261719 492.070312 195.695312 L 492.070312 250.886719 C 492.070312 255.316406 490.132812 258.90625 487.742188 258.90625 L 405.679688 258.90625 C 403.292969 258.90625 401.355469 255.316406 401.355469 250.886719 L 401.355469 195.695312 C 401.355469 191.261719 403.292969 187.667969 405.679688 187.667969 L 487.742188 187.667969 " fill-opacity="1" fill-rule="nonzero"/><path fill="#ffffff" d="M 448.863281 221.730469 C 448.753906 222.191406 448.1875 222.484375 447.445312 222.496094 C 445.738281 229.261719 442.828125 236.75 439.457031 241.492188 C 438.140625 240.480469 435.609375 238.964844 434.0625 238.183594 C 437.277344 233.957031 439.914062 226.625 441.34375 219.847656 Z M 471.375 205.789062 C 471.375 206.074219 470.648438 212.753906 468.917969 219.792969 L 464.78125 219.089844 C 467.96875 225.113281 470.703125 232.890625 471.707031 238.183594 L 465.285156 240.699219 C 464.496094 235.398438 461.75 227.253906 458.710938 221.214844 L 464.554688 219.035156 L 463.207031 218.820312 C 463.488281 217.042969 463.769531 214.582031 464.105469 212.058594 L 457.1875 212.109375 L 457.1875 241.832031 C 457.1875 247.113281 456.058594 249.605469 446.195312 249.835938 C 445.851562 247.824219 444.828125 244.734375 443.855469 242.910156 C 446.25 242.914062 448.695312 242.867188 449.492188 242.851562 C 450.226562 242.835938 450.457031 242.601562 450.457031 241.851562 L 450.457031 212.160156 L 444.371094 212.203125 C 442.542969 216.257812 440.484375 219.914062 438.195312 222.832031 C 436.992188 221.574219 434.519531 219.515625 432.964844 218.488281 C 437.21875 213.351562 440.714844 204.308594 442.601562 195.523438 L 450.570312 197.65625 C 450.398438 198.113281 449.890625 198.460938 449.039062 198.40625 C 448.410156 200.882812 447.671875 203.363281 446.820312 205.789062 L 467.746094 205.691406 Z M 438.25 197.839844 C 438.082031 198.359375 437.507812 198.652344 436.644531 198.597656 C 435.148438 203 433.371094 207.46875 431.410156 211.714844 L 433.601562 212.21875 C 433.488281 212.800781 433.023438 213.210938 432.042969 213.335938 L 432.042969 250.109375 L 425.167969 250.269531 L 425.167969 223.160156 C 423.890625 225.15625 422.554688 227.035156 421.21875 228.683594 C 420.285156 227.125 418.246094 224.058594 417.019531 222.554688 C 422.203125 216.4375 427.308594 205.640625 430.3125 195.355469 L 438.25 197.839844 " fill-opacity="1" fill-rule="nonzero"/><path fill="#05347e" d="M 406.019531 271.683594 C 406.019531 271.683594 348.054688 271.359375 327.125 271.683594 C 324.832031 271.71875 322.96875 275.136719 322.96875 279.394531 L 322.96875 313.660156 L 309.949219 321.179688 L 322.96875 328.695312 L 322.96875 332.457031 C 322.96875 336.714844 324.832031 340.167969 327.125 340.167969 L 406.019531 340.167969 C 408.316406 340.167969 410.179688 336.714844 410.179688 332.457031 L 410.179688 279.394531 C 410.179688 275.136719 408.316406 271.683594 406.019531 271.683594 " fill-opacity="1" fill-rule="nonzero"/><path fill="#ffffff" d="M 356.792969 312.28125 L 371.113281 312.28125 L 363.953125 291.792969 Z M 373.519531 319.207031 L 354.386719 319.207031 L 350.382812 330.707031 L 341.460938 330.707031 L 360.121094 281.304688 L 367.824219 281.304688 L 386.515625 330.707031 L 377.558594 330.707031 L 373.519531 319.207031 " fill-opacity="1" fill-rule="nonzero"/><path fill="#000000" d="M 263.097656 290.949219 C 262.761719 290.949219 262.4375 290.78125 262.246094 290.472656 C 261.957031 290.003906 262.101562 289.386719 262.574219 289.097656 L 334.632812 244.550781 C 335.101562 244.261719 335.71875 244.402344 336.011719 244.875 C 336.300781 245.347656 336.15625 245.964844 335.683594 246.253906 L 263.625 290.800781 C 263.460938 290.902344 263.28125 290.949219 263.097656 290.949219 " fill-opacity="1" fill-rule="nonzero"/><path fill="#000000" d="M 271.042969 300.277344 C 270.621094 300.277344 270.230469 300.007812 270.09375 299.589844 C 269.917969 299.0625 270.203125 298.496094 270.726562 298.324219 L 308.320312 285.863281 C 308.84375 285.6875 309.410156 285.972656 309.585938 286.5 C 309.761719 287.023438 309.472656 287.589844 308.949219 287.765625 L 271.359375 300.226562 C 271.253906 300.257812 271.148438 300.277344 271.042969 300.277344 " fill-opacity="1" fill-rule="nonzero"/><path fill="#000000" d="M 41.84375 349.035156 C 41.390625 349.035156 40.980469 348.730469 40.871094 348.273438 C 34.34375 321.441406 35.058594 292.433594 42.929688 264.390625 C 43.082031 263.859375 43.636719 263.550781 44.167969 263.699219 C 44.699219 263.847656 45.011719 264.402344 44.859375 264.933594 C 37.078125 292.648438 36.371094 321.300781 42.816406 347.796875 C 42.949219 348.335938 42.621094 348.875 42.082031 349.011719 C 42 349.027344 41.921875 349.035156 41.84375 349.035156 " fill-opacity="1" fill-rule="nonzero"/><path fill="#000000" d="M 47.828125 254.996094 L 51.347656 257.503906 C 51.574219 256.59375 51.875 255.324219 52.148438 253.953125 Z M 51.949219 260.167969 C 51.746094 260.167969 51.542969 260.105469 51.371094 259.984375 L 44.878906 255.351562 C 44.558594 255.125 44.398438 254.730469 44.476562 254.347656 C 44.550781 253.960938 44.84375 253.65625 45.222656 253.5625 L 53.179688 251.640625 C 53.507812 251.5625 53.855469 251.65625 54.097656 251.882812 C 54.34375 252.113281 54.460938 252.453125 54.402344 252.785156 C 53.832031 256.113281 52.953125 259.300781 52.917969 259.433594 C 52.828125 259.75 52.59375 260.003906 52.285156 260.109375 C 52.175781 260.152344 52.0625 260.167969 51.949219 260.167969 " fill-opacity="1" fill-rule="nonzero"/><path fill="#000000" d="M 313.378906 566.480469 C 312.84375 566.480469 312.402344 566.058594 312.375 565.523438 C 312.351562 564.96875 312.78125 564.503906 313.335938 564.480469 C 368.679688 562.085938 421.011719 543.132812 460.707031 511.113281 C 461.136719 510.765625 461.761719 510.835938 462.113281 511.265625 C 462.460938 511.695312 462.394531 512.324219 461.960938 512.675781 C 441.847656 528.898438 418.777344 541.777344 393.386719 550.941406 C 368.15625 560.046875 341.253906 565.277344 313.417969 566.480469 C 313.40625 566.480469 313.390625 566.480469 313.378906 566.480469 " fill-opacity="1" fill-rule="nonzero"/><path fill="#000000" d="M 346.304688 550.386719 C 345.820312 550.386719 345.394531 550.039062 345.3125 549.550781 C 345.222656 549 345.597656 548.484375 346.136719 548.398438 C 385.632812 541.878906 422.09375 526.253906 451.59375 503.214844 C 452.03125 502.875 452.65625 502.953125 453 503.390625 C 453.335938 503.828125 453.261719 504.457031 452.828125 504.792969 C 423.066406 528.039062 386.289062 543.800781 346.464844 550.371094 C 346.410156 550.382812 346.359375 550.386719 346.304688 550.386719 " fill-opacity="1" fill-rule="nonzero"/><path fill="#000000" d="M 457.191406 61.457031 C 457.179688 61.457031 457.171875 61.457031 457.167969 61.457031 L 452.96875 61.359375 C 452.417969 61.347656 451.976562 60.886719 451.992188 60.332031 C 452.003906 59.789062 452.449219 59.355469 452.992188 59.355469 C 453.003906 59.355469 453.003906 59.355469 453.015625 59.355469 L 457.214844 59.453125 C 457.765625 59.46875 458.207031 59.925781 458.191406 60.480469 C 458.179688 61.027344 457.734375 61.457031 457.191406 61.457031 " fill-opacity="1" fill-rule="nonzero"/><path fill="#000000" d="M 471.886719 61.808594 C 471.875 61.808594 471.867188 61.808594 471.863281 61.808594 L 467.664062 61.710938 C 467.109375 61.695312 466.667969 61.238281 466.683594 60.6875 C 466.699219 60.136719 467.140625 59.707031 467.683594 59.707031 C 467.691406 59.707031 467.699219 59.707031 467.707031 59.707031 L 471.90625 59.804688 C 472.460938 59.820312 472.898438 60.277344 472.886719 60.832031 C 472.871094 61.375 472.425781 61.808594 471.886719 61.808594 " fill-opacity="1" fill-rule="nonzero"/><path fill="#000000" d="M 462.269531 71.035156 C 462.265625 71.035156 462.257812 71.035156 462.253906 71.035156 C 461.699219 71.023438 461.257812 70.566406 461.269531 70.015625 L 461.339844 65.8125 C 461.351562 65.265625 461.800781 64.832031 462.34375 64.832031 C 462.347656 64.832031 462.355469 64.832031 462.359375 64.832031 C 462.914062 64.84375 463.355469 65.296875 463.347656 65.851562 L 463.273438 70.050781 C 463.261719 70.597656 462.816406 71.035156 462.269531 71.035156 " fill-opacity="1" fill-rule="nonzero"/><path fill="#000000" d="M 462.53125 56.332031 C 462.523438 56.332031 462.515625 56.332031 462.511719 56.332031 C 461.960938 56.324219 461.519531 55.867188 461.53125 55.3125 L 461.605469 51.113281 C 461.613281 50.570312 462.0625 50.128906 462.605469 50.128906 C 462.613281 50.128906 462.621094 50.128906 462.625 50.128906 C 463.175781 50.140625 463.613281 50.59375 463.605469 51.148438 L 463.535156 55.347656 C 463.523438 55.898438 463.078125 56.332031 462.53125 56.332031 " fill-opacity="1" fill-rule="nonzero"/><path fill="#000000" d="M 431.796875 40.324219 C 429.070312 40.324219 426.847656 42.542969 426.847656 45.273438 C 426.847656 48 429.070312 50.222656 431.796875 50.222656 C 434.527344 50.222656 436.75 48 436.75 45.273438 C 436.75 42.542969 434.527344 40.324219 431.796875 40.324219 Z M 431.796875 52.222656 C 427.964844 52.222656 424.847656 49.109375 424.847656 45.273438 C 424.847656 41.441406 427.964844 38.320312 431.796875 38.320312 C 435.632812 38.320312 438.75 41.441406 438.75 45.273438 C 438.75 49.109375 435.632812 52.222656 431.796875 52.222656 " fill-opacity="1" fill-rule="nonzero"/></svg>